<svg style="position: absolute; width: 0; height: 0; overflow: hidden;" version="1.1" xmlns="http://www.w3.org/2000/svg" xmlns:xlink="http://www.w3.org/1999/xlink">
<defs>
<symbol id="icon-check-square-o" viewBox="0 0 30 32">
<title>check-square-o</title>
<path class="path1" d="M25.143 16.607v5.679q0 2.125-1.509 3.634t-3.634 1.509h-14.857q-2.125 0-3.634-1.509t-1.509-3.634v-14.857q0-2.125 1.509-3.634t3.634-1.509h14.857q1.125 0 2.089 0.446 0.268 0.125 0.321 0.411 0.054 0.304-0.161 0.518l-0.875 0.875q-0.179 0.179-0.411 0.179-0.054 0-0.161-0.036-0.411-0.107-0.804-0.107h-14.857q-1.179 0-2.018 0.839t-0.839 2.018v14.857q0 1.179 0.839 2.018t2.018 0.839h14.857q1.179 0 2.018-0.839t0.839-2.018v-4.536q0-0.232 0.161-0.393l1.143-1.143q0.179-0.179 0.411-0.179 0.107 0 0.214 0.054 0.357 0.143 0.357 0.518zM29.268 7.875l-14.536 14.536q-0.429 0.429-1.018 0.429t-1.018-0.429l-7.679-7.679q-0.429-0.429-0.429-1.018t0.429-1.018l1.964-1.964q0.429-0.429 1.018-0.429t1.018 0.429l4.696 4.696 11.554-11.554q0.429-0.429 1.018-0.429t1.018 0.429l1.964 1.964q0.429 0.429 0.429 1.018t-0.429 1.018z"></path>
</symbol>
<symbol id="icon-paper-plane-o" viewBox="0 0 32 32">
<title>paper-plane-o</title>
<path class="path1" d="M31.5 0.196q0.589 0.429 0.482 1.143l-4.571 27.429q-0.089 0.518-0.571 0.804-0.25 0.143-0.554 0.143-0.196 0-0.429-0.089l-9.411-3.839-5.321 5.839q-0.321 0.375-0.839 0.375-0.25 0-0.411-0.071-0.339-0.125-0.536-0.42t-0.196-0.652v-8.071l-8.429-3.446q-0.661-0.25-0.714-0.982-0.054-0.696 0.571-1.054l29.714-17.143q0.625-0.375 1.214 0.036zM25.393 26.964l3.946-23.625-25.607 14.768 6 2.446 15.411-11.411-8.536 14.232z"></path>
</symbol>
<symbol id="icon-server" viewBox="0 0 32 32">
<title>server</title>
<path class="path1" d="M2.286 25.143h18.286v-2.286h-18.286v2.286zM2.286 16h18.286v-2.286h-18.286v2.286zM30.286 24q0-0.714-0.5-1.214t-1.214-0.5-1.214 0.5-0.5 1.214 0.5 1.214 1.214 0.5 1.214-0.5 0.5-1.214zM2.286 6.857h18.286v-2.286h-18.286v2.286zM30.286 14.857q0-0.714-0.5-1.214t-1.214-0.5-1.214 0.5-0.5 1.214 0.5 1.214 1.214 0.5 1.214-0.5 0.5-1.214zM30.286 5.714q0-0.714-0.5-1.214t-1.214-0.5-1.214 0.5-0.5 1.214 0.5 1.214 1.214 0.5 1.214-0.5 0.5-1.214zM32 20.571v6.857h-32v-6.857h32zM32 11.429v6.857h-32v-6.857h32zM32 2.286v6.857h-32v-6.857h32z"></path>
</symbol>
<symbol id="icon-blur_linear" viewBox="0 0 24 24">
<title>blur_linear</title>
<path class="path1" d="M12.984 17.016c-0.563 0-0.984-0.469-0.984-1.031s0.422-0.984 0.984-0.984 1.031 0.422 1.031 0.984-0.469 1.031-1.031 1.031zM12.984 12.984c-0.563 0-0.984-0.422-0.984-0.984s0.422-0.984 0.984-0.984 1.031 0.422 1.031 0.984-0.469 0.984-1.031 0.984zM12.984 9c-0.563 0-0.984-0.422-0.984-0.984s0.422-1.031 0.984-1.031 1.031 0.469 1.031 1.031-0.469 0.984-1.031 0.984zM17.016 12.516c-0.281 0-0.516-0.234-0.516-0.516s0.234-0.516 0.516-0.516 0.469 0.234 0.469 0.516-0.188 0.516-0.469 0.516zM17.016 8.484c-0.281 0-0.516-0.188-0.516-0.469s0.234-0.516 0.516-0.516 0.469 0.234 0.469 0.516-0.188 0.469-0.469 0.469zM3 3h18v2.016h-18v-2.016zM17.016 16.5c-0.281 0-0.516-0.234-0.516-0.516s0.234-0.469 0.516-0.469 0.469 0.188 0.469 0.469-0.188 0.516-0.469 0.516zM9 17.016c-0.563 0-0.984-0.469-0.984-1.031s0.422-0.984 0.984-0.984 0.984 0.422 0.984 0.984-0.422 1.031-0.984 1.031zM5.016 13.5c-0.844 0-1.5-0.656-1.5-1.5s0.656-1.5 1.5-1.5 1.5 0.656 1.5 1.5-0.656 1.5-1.5 1.5zM5.016 9.516c-0.844 0-1.5-0.656-1.5-1.5s0.656-1.5 1.5-1.5 1.5 0.656 1.5 1.5-0.656 1.5-1.5 1.5zM3 21v-2.016h18v2.016h-18zM9 9c-0.563 0-0.984-0.422-0.984-0.984s0.422-1.031 0.984-1.031 0.984 0.469 0.984 1.031-0.422 0.984-0.984 0.984zM9 12.984c-0.563 0-0.984-0.422-0.984-0.984s0.422-0.984 0.984-0.984 0.984 0.422 0.984 0.984-0.422 0.984-0.984 0.984zM5.016 17.484c-0.844 0-1.5-0.656-1.5-1.5s0.656-1.5 1.5-1.5 1.5 0.656 1.5 1.5-0.656 1.5-1.5 1.5z"></path>
</symbol>
<symbol id="icon-mode_edit" viewBox="0 0 24 24">
<title>mode_edit</title>
<path class="path1" d="M20.719 7.031l-1.828 1.828-3.75-3.75 1.828-1.828c0.375-0.375 1.031-0.375 1.406 0l2.344 2.344c0.375 0.375 0.375 1.031 0 1.406zM3 17.25l11.063-11.063 3.75 3.75-11.063 11.063h-3.75v-3.75z"></path>
</symbol>
<symbol id="icon-delete_forever" viewBox="0 0 24 24">
<title>delete_forever</title>
<path class="path1" d="M15.516 3.984h3.469v2.016h-13.969v-2.016h3.469l1.031-0.984h4.969zM8.438 11.859l2.156 2.156-2.109 2.109 1.406 1.406 2.109-2.109 2.109 2.109 1.406-1.406-2.109-2.109 2.109-2.156-1.406-1.406-2.109 2.156-2.109-2.156zM6 18.984v-12h12v12c0 1.078-0.938 2.016-2.016 2.016h-7.969c-1.078 0-2.016-0.938-2.016-2.016z"></path>
</symbol>
<symbol id="icon-favorite" viewBox="0 0 24 24">
<title>favorite</title>
<path class="path1" d="M12 21.328l-1.453-1.313c-5.156-4.688-8.531-7.734-8.531-11.531 0-3.094 2.391-5.484 5.484-5.484 1.734 0 3.422 0.844 4.5 2.109 1.078-1.266 2.766-2.109 4.5-2.109 3.094 0 5.484 2.391 5.484 5.484 0 3.797-3.375 6.891-8.531 11.578z"></path>
</symbol>
<symbol id="icon-favorite_border" viewBox="0 0 24 24">
<title>favorite_border</title>
<path class="path1" d="M12.094 18.563c4.781-4.313 7.922-7.172 7.922-10.078 0-2.016-1.5-3.469-3.516-3.469-1.547 0-3.047 0.984-3.563 2.344h-1.875c-0.516-1.359-2.016-2.344-3.563-2.344-2.016 0-3.516 1.453-3.516 3.469 0 2.906 3.141 5.766 7.922 10.078l0.094 0.094zM16.5 3c3.094 0 5.484 2.391 5.484 5.484 0 3.797-3.375 6.844-8.531 11.531l-1.453 1.313-1.453-1.266c-5.156-4.688-8.531-7.781-8.531-11.578 0-3.094 2.391-5.484 5.484-5.484 1.734 0 3.422 0.844 4.5 2.109 1.078-1.266 2.766-2.109 4.5-2.109z"></path>
</symbol>
<symbol id="icon-get_app" viewBox="0 0 24 24">
<title>get_app</title>
<path class="path1" d="M5.016 18h13.969v2.016h-13.969v-2.016zM18.984 9l-6.984 6.984-6.984-6.984h3.984v-6h6v6h3.984z"></path>
</symbol>
<symbol id="icon-list" viewBox="0 0 24 24">
<title>list</title>
<path class="path1" d="M6.984 6.984h14.016v2.016h-14.016v-2.016zM6.984 17.016v-2.016h14.016v2.016h-14.016zM6.984 12.984v-1.969h14.016v1.969h-14.016zM3 9v-2.016h2.016v2.016h-2.016zM3 17.016v-2.016h2.016v2.016h-2.016zM3 12.984v-1.969h2.016v1.969h-2.016z"></path>
</symbol>
<symbol id="icon-storage" viewBox="0 0 24 24">
<title>storage</title>
<path class="path1" d="M3.984 11.016v1.969h2.016v-1.969h-2.016zM2.016 14.016v-4.031h19.969v4.031h-19.969zM6 6.984v-1.969h-2.016v1.969h2.016zM2.016 3.984h19.969v4.031h-19.969v-4.031zM3.984 17.016v1.969h2.016v-1.969h-2.016zM2.016 20.016v-4.031h19.969v4.031h-19.969z"></path>
</symbol>
<symbol id="icon-files" viewBox="0 0 32 32">
<title>files</title>
<path class="path1" d="M16.984 16.047h-8v0.906h8v-0.906zM16.984 19.047h-8v0.969h8v-0.969zM12.016 4.016v3.016h-3.032v3.016h-2.953v18.938h13.969v-3.031h2.953v-2.938h3.016v-19h-13.953zM19.031 28.016h-12.031v-17.063h12.031v17.063zM21.984 25.047h-1.984v-15h-10.047v-2.047h12.031v17.047zM25 22.047h-2.047v-15.016h-9.969v-2.047h12.016v17.063zM16.984 25.031h-8v0.969h8v-0.969zM16.984 22.016h-8v0.969h8v-0.969zM16.999 13.016h-8v1h8v-1z"></path>
</symbol>
<symbol id="icon-camera" viewBox="0 0 32 32">
<title>camera</title>
<path class="path1" d="M27 17.047l-5-2.003v-4.008l5-2.004c0.553 0 1 0.449 1 1.002v6.012c0 0.553-0.447 1.001-1 1.001zM17.5 10.033c-2.485 0-4.5-2.019-4.5-4.509s2.015-4.509 4.5-4.509 4.5 2.019 4.5 4.509c0 2.491-2.015 4.509-4.5 4.509zM8.5 10.033c-2.485 0-4.5-2.019-4.5-4.509s2.015-4.509 4.5-4.509 4.5 2.019 4.5 4.509c0 2.491-2.015 4.509-4.5 4.509zM21 10.033v9.018h-5.582c-0.052 0.832-0.416 1.549-0.957 1.955h0.564l3.989 8.996h-0.994l-1.33-3h-2.66v4.998h-0.997v-4.998h-2.702l-1.351 3h-0.995l4.052-8.996h0.377c-0.541-0.406-0.905-1.123-0.957-1.955h-6.457v-9.018h16zM13.032 21.316c-0.041-0.010-0.079-0.031-0.119-0.045l-2.132 4.732h2.251v-4.687zM14.029 21.244v4.76h2.217l-2.126-4.795c-0.029 0.014-0.059 0.023-0.091 0.035z"></path>
</symbol>
<symbol id="icon-download" viewBox="0 0 32 32">
<title>download</title>
<path class="path1" d="M21.6 8h-11l-6.6 9v5c0 1.104 0.896 2 2 2h20c1.104 0 2-0.896 2-2v-5l-6.4-9zM22.465 17.023l-2.052 3.002-8.588-0.020-2.202-2.994-4.086-0.024 5.662-7.975h9.801l5.6 7.975-4.135 0.036zM17.375 11c0-0.552-0.323-1-0.875-1-0.553 0-0.938 0.448-0.938 1v3.938l-2.437 0.062 3.375 3.812 3.312-3.812-2.438-0.062v-3.938z"></path>
</symbol>
<symbol id="icon-trashcan" viewBox="0 0 32 32">
<title>trashcan</title>
<path class="path1" d="M8 26c0 1.656 1.343 3 3 3h10c1.656 0 3-1.344 3-3l2-16h-20l2 16zM19 13h2v13h-2v-13zM15 13h2v13h-2v-13zM11 13h2v13h-2v-13zM25.5 6h-6.5c0 0-0.448-2-1-2h-4c-0.553 0-1 2-1 2h-6.5c-0.829 0-1.5 0.671-1.5 1.5s0 1.5 0 1.5h22c0 0 0-0.671 0-1.5s-0.672-1.5-1.5-1.5z"></path>
</symbol>
<symbol id="icon-stack" viewBox="0 0 32 32">
<title>stack</title>
<path class="path1" d="M3 26h19v-14h-19v14zM5.938 11h17.062v12h2v-14h-19l-0.062 2zM9 6l-0.062 2h17.062v12h2v-14h-19z"></path>
</symbol>
<symbol id="icon-pencil" viewBox="0 0 32 32">
<title>pencil</title>
<path class="path1" d="M5.582 20.054l14.886-14.886 6.369 6.369-14.886 14.886-6.369-6.369zM21.153 8.758l-0.698-0.697-11.981 11.98 0.698 0.698 11.981-11.981zM22.549 10.154l-0.698-0.698-11.981 11.982 0.697 0.697 11.982-11.981zM23.945 11.55l-0.698-0.698-11.981 11.981 0.698 0.698 11.981-11.981zM23.319 2.356c0.781-0.783 2.045-0.788 2.82-0.013l3.512 3.512c0.775 0.775 0.77 2.038-0.012 2.82l-2.17 2.17-6.32-6.32 2.17-2.169zM5.092 20.883l6.030 6.030-5.284 1.877-2.623-2.623 1.877-5.284zM4.837 29.117l-3.066 1.117 1.117-3.066 1.949 1.949z"></path>
</symbol>
<symbol id="icon-pen" viewBox="0 0 32 32">
<title>pen</title>
<path class="path1" d="M29.024 6.499l-2.467 2.467-3.523-3.523 2.467-2.467c0.973-0.973 2.551-0.973 3.523 0s0.973 2.55 0 3.523zM27.614 9.317c0.195-0.194 0.511-0.194 0.705 0 0.195 0.195 0.195 0.511 0 0.705l-9.16 9.161c-0.195 0.194-0.511 0.194-0.705 0s-0.194-0.51 0-0.704l5.99-5.99-4.934-4.934 2.114-2.113 4.933 4.933 1.057-1.058zM19.511 8.966l3.523 3.523-14.094 14.094-3.523-3.523 14.094-14.094zM2.246 29.754l2.466-5.989 3.523 3.523-5.989 2.466z"></path>
</symbol>
<symbol id="icon-pin" viewBox="0 0 32 32">
<title>pin</title>
<path class="path1" d="M18.973 17.802l-7.794-4.5c-0.956-0.553-2.18-0.225-2.732 0.731-0.552 0.957-0.224 2.18 0.732 2.732l7.793 4.5c0.957 0.553 2.18 0.225 2.732-0.732 0.554-0.956 0.226-2.179-0.731-2.731zM12.545 12.936l6.062 3.5 2.062-5.738-4.186-2.416-3.938 4.654zM8.076 27.676l5.799-7.044-2.598-1.5-3.201 8.544zM23.174 7.525l-5.195-3c-0.718-0.414-1.635-0.169-2.049 0.549-0.415 0.718-0.168 1.635 0.549 2.049l5.196 3c0.718 0.414 1.635 0.169 2.049-0.549s0.168-1.635-0.55-2.049z"></path>
</symbol>
<symbol id="icon-male" viewBox="0 0 32 32">
<title>male</title>
<path class="path1" d="M16.902 6.004h9.125l-0.020 9.229-3.129-3.128-2.949 2.949c0.662 1.164 1.043 2.507 1.043 3.941 0 4.418-3.58 8-8 8-4.418 0-8-3.582-8-8s3.582-8 8-8c1.525 0 2.946 0.435 4.16 1.176l2.918-2.956-3.148-3.211zM8.973 18.996c0 2.209 1.791 4 4 4s4-1.791 4-4-1.791-4-4-4-4 1.791-4 4z"></path>
</symbol>
<symbol id="icon-female" viewBox="0 0 32 32">
<title>female</title>
<path class="path1" d="M18.039 18.721v3.293h3.996v3.996h-3.996v3.996h-4.057v-3.996h-3.995v-3.996h3.995v-3.305c-3.435-0.895-5.973-4.009-5.973-7.723 0-4.413 3.578-7.991 7.991-7.991s7.99 3.578 7.99 7.991c0 3.729-2.496 6.852-5.951 7.735zM16 6.991c-2.207 0-3.996 1.788-3.996 3.995 0 2.206 1.789 3.995 3.996 3.995s3.996-1.789 3.996-3.995c0-2.207-1.789-3.995-3.996-3.995z"></path>
</symbol>
<symbol id="icon-info" viewBox="0 0 32 32">
<title>info</title>
<path class="path1" d="M16.247 4.733c0 1.684 1.271 2.825 2.84 2.825s2.842-1.142 2.842-2.825c0-1.685-1.272-2.826-2.842-2.826-1.568 0-2.84 1.141-2.84 2.826zM10.096 14.375c0 0.334-0.061 1.163 0.008 1.662l2.479-2.983c0.513-0.562 1.106-0.955 1.409-0.849s0.47 0.463 0.371 0.795l-4.103 13.59c-0.473 1.588 0.421 3.148 2.599 3.504 3.189 0 5.084-2.158 6.948-4.955 0-0.334 0.111-1.213 0.044-1.713l-2.479 2.982c-0.514 0.562-1.151 0.955-1.455 0.85-0.28-0.098-0.444-0.41-0.389-0.721l4.132-13.653c0.344-1.734-0.59-3.312-2.564-3.514-2.076 0.001-5.136 2.209-7 5.005z"></path>
</symbol>
<symbol id="icon-paperplane" viewBox="0 0 32 32">
<title>paperplane</title>
<path class="path1" d="M3.363 4.414l4.875 19.348 9.467-3.018-8.448-10.298 10.902 9.56 8.853-2.77-25.649-12.822zM18.004 27.586v-5.324l-3.116 0.926 3.116 4.398z"></path>
</symbol>
<symbol id="icon-globe" viewBox="0 0 32 32">
<title>globe</title>
<path class="path1" d="M22.658 10.988h5.172c0.693 1.541 1.107 3.229 1.178 5.012h-5.934c-0.025-1.884-0.181-3.544-0.416-5.012zM20.398 3.896c2.967 1.153 5.402 3.335 6.928 6.090h-4.836c-0.549-2.805-1.383-4.799-2.092-6.090zM16.068 9.986v-6.996c1.066 0.047 2.102 0.216 3.092 0.493 0.75 1.263 1.719 3.372 2.33 6.503h-5.422zM9.489 22.014c-0.234-1.469-0.396-3.119-0.421-5.012h5.998v5.012h-5.577zM9.479 10.988h5.587v5.012h-6.004c0.025-1.886 0.183-3.543 0.417-5.012zM11.988 3.461c0.987-0.266 2.015-0.435 3.078-0.469v6.994h-5.422c0.615-3.148 1.591-5.265 2.344-6.525zM3.661 9.986c1.551-2.8 4.062-4.993 7.096-6.131-0.715 1.29-1.559 3.295-2.114 6.131h-4.982zM8.060 16h-6.060c0.066-1.781 0.467-3.474 1.158-5.012h5.316c-0.233 1.469-0.39 3.128-0.414 5.012zM8.487 22.014h-5.29c-0.694-1.543-1.139-3.224-1.204-5.012h6.071c0.024 1.893 0.188 3.541 0.423 5.012zM8.651 23.016c0.559 2.864 1.416 4.867 2.134 6.142-3.045-1.133-5.557-3.335-7.11-6.142h4.976zM15.066 23.016v6.994c-1.052-0.033-2.067-0.199-3.045-0.46-0.755-1.236-1.736-3.363-2.356-6.534h5.401zM21.471 23.016c-0.617 3.152-1.592 5.271-2.344 6.512-0.979 0.271-2.006 0.418-3.059 0.465v-6.977h5.403zM16.068 17.002h5.998c-0.023 1.893-0.188 3.542-0.422 5.012h-5.576v-5.012zM22.072 16h-6.004v-5.012h5.586c0.235 1.469 0.393 3.126 0.418 5.012zM23.070 17.002h5.926c-0.066 1.787-0.506 3.468-1.197 5.012h-5.152c0.234-1.471 0.398-3.119 0.423-5.012zM27.318 23.016c-1.521 2.766-3.967 4.949-6.947 6.1 0.715-1.276 1.561-3.266 2.113-6.1h4.834z"></path>
</symbol>
<symbol id="icon-clipboard" viewBox="0 0 32 32">
<title>clipboard</title>
<path class="path1" d="M7.903 7.023c0 0.55 0 1.993 0 1.993h14.014c0 0 0-1.443 0-1.993s-0.445-0.997-0.996-0.997h-2.99c0 0 0.034-1.138 0.034-2.882 0-1.619-1.404-3.098-3.086-3.098s-2.978 1.406-2.978 3.089c0 1.619-0.012 2.891-0.012 2.891h-2.989c-0.551 0-0.997 0.446-0.997 0.997zM14.879 3.037c0.55 0 0.997 0.446 0.997 0.996 0 0.551-0.447 0.997-0.997 0.997s-0.997-0.446-0.997-0.997c0-0.55 0.447-0.996 0.997-0.996zM23.911 6.026v9.901c0 0 0.86-0.949 1.992-1.404v-9.493c0-1.101-0.955-1.993-2.055-1.993h-4.921v1.993h3.986c0.551 0 0.998 0.446 0.998 0.996zM12.823 30.006h-5.917c-0.55 0-0.996-0.445-0.996-0.996v-22.984c0-0.55 0.446-0.996 0.996-0.996h4.049v-1.993h-5.045c-1.101 0-1.993 0.893-1.993 1.993v24.976c0 1.101 0.892 1.994 1.993 1.994h9.081c-0.39-0.658-1.087-1.418-2.168-1.994zM23.911 29.010c0 0.551-0.447 0.996-0.997 0.996h-2.729c-0.502 0.672-0.975 1.34-1.41 1.994h5.074c1.1 0 2.055-0.893 2.055-1.994v-6.129c-0.66 0.543-1.328 1.156-1.992 1.83v3.303zM28.083 20.926c-1.123-2.496-0.48-4.523-0.32-6.863-6.579 3.275-10.751 13.103-10.751 13.103l-2.567-4.836-5.295 3.119c2.247 0.779 5.456 3.275 8.184 6.551 1.924-3.432 7.861-10.449 10.749-11.074z"></path>
</symbol>
<symbol id="icon-folder-download" viewBox="0 0 32 32">
<title>folder-download</title>
<path class="path1" d="M18 8l-4-4h-14v26h32v-22h-14zM16 27l-7-7h5v-8h4v8h5l-7 7z"></path>
</symbol>
<symbol id="icon-file-excel" viewBox="0 0 32 32">
<title>file-excel</title>
<path class="path1" d="M23.22 12h-4.228l-2.992 4.407-2.992-4.407h-4.228l5.068 7.577-5.718 8.423h7.87v-2.862h-1.567l1.567-2.344 3.481 5.205h4.389l-5.718-8.423 5.068-7.577z"></path>
<path class="path2" d="M28.681 7.159c-0.694-0.947-1.662-2.053-2.724-3.116s-2.169-2.030-3.116-2.724c-1.612-1.182-2.393-1.319-2.841-1.319h-15.5c-1.378 0-2.5 1.122-2.5 2.5v27c0 1.378 1.121 2.5 2.5 2.5h23c1.378 0 2.5-1.122 2.5-2.5v-19.5c0-0.448-0.137-1.23-1.319-2.841v0zM24.543 5.457c0.959 0.959 1.712 1.825 2.268 2.543h-4.811v-4.811c0.718 0.556 1.584 1.309 2.543 2.268v0zM28 29.5c0 0.271-0.229 0.5-0.5 0.5h-23c-0.271 0-0.5-0.229-0.5-0.5v-27c0-0.271 0.229-0.5 0.5-0.5 0 0 15.499-0 15.5 0v7c0 0.552 0.448 1 1 1h7v19.5z"></path>
</symbol>
</defs>
</svg>
