<?xml version="1.0" encoding="UTF-8" standalone="no"?>
<svg
   xmlns:dc="http://purl.org/dc/elements/1.1/"
   xmlns:cc="http://creativecommons.org/ns#"
   xmlns:rdf="http://www.w3.org/1999/02/22-rdf-syntax-ns#"
   xmlns:svg="http://www.w3.org/2000/svg"
   xmlns="http://www.w3.org/2000/svg"
   xmlns:sodipodi="http://sodipodi.sourceforge.net/DTD/sodipodi-0.dtd"
   xmlns:inkscape="http://www.inkscape.org/namespaces/inkscape"
   version="1.1"
   id="Capa_1"
   x="0px"
   y="0px"
   width="511.999px"
   height="511.999px"
   viewBox="0 0 511.999 511.999"
   xml:space="preserve"
   sodipodi:docname="mag glass 3.svg"
   style="enable-background:new 0 0 511.999 511.999;"
   inkscape:version="0.92.3 (2405546, 2018-03-11)"><metadata
   id="metadata835"><rdf:RDF><cc:Work
       rdf:about=""><dc:format>image/svg+xml</dc:format><dc:type
         rdf:resource="http://purl.org/dc/dcmitype/StillImage" /><dc:title></dc:title></cc:Work></rdf:RDF></metadata><defs
   id="defs833" /><sodipodi:namedview
   pagecolor="#ffffff"
   bordercolor="#666666"
   borderopacity="1"
   objecttolerance="10"
   gridtolerance="10"
   guidetolerance="10"
   inkscape:pageopacity="0"
   inkscape:pageshadow="2"
   inkscape:window-width="1920"
   inkscape:window-height="1001"
   id="namedview831"
   showgrid="false"
   inkscape:zoom="1"
   inkscape:cx="502.49406"
   inkscape:cy="213.94057"
   inkscape:window-x="-9"
   inkscape:window-y="-9"
   inkscape:window-maximized="1"
   inkscape:current-layer="Capa_1" />
<g
   id="g828">
	<path
   d="M496.131,435.698L374.855,332.551c-12.537-11.283-25.945-16.463-36.777-15.963C366.707,283.055,384,239.549,384,192   C384,85.961,298.039,0,192,0C85.962,0,0,85.961,0,192s85.961,192,192,192c47.549,0,91.055-17.293,124.588-45.922   c-0.5,10.831,4.68,24.238,15.963,36.775L435.697,496.13c17.662,19.623,46.512,21.277,64.109,3.678   C517.406,482.209,515.754,453.359,496.131,435.698z M192,320c-70.692,0-128-57.309-128-128c0-70.692,57.308-128,128-128   c70.691,0,128,57.308,128,128C320,262.691,262.693,320,192,320z"
   id="path826" />
</g>
<circle
   style="opacity:0.77333332;fill:#ffffff;fill-opacity:1;stroke:#fffefe;stroke-width:1.02766788;stroke-miterlimit:4;stroke-dasharray:none;stroke-opacity:1"
   id="path4540"
   cx="191.5"
   cy="191.49899"
   r="129.48618" /></svg>