<?xml version="1.0" encoding="UTF-8" standalone="no"?>
<svg
   xmlns:dc="http://purl.org/dc/elements/1.1/"
   xmlns:cc="http://creativecommons.org/ns#"
   xmlns:rdf="http://www.w3.org/1999/02/22-rdf-syntax-ns#"
   xmlns:svg="http://www.w3.org/2000/svg"
   xmlns="http://www.w3.org/2000/svg"
   xmlns:xlink="http://www.w3.org/1999/xlink"
   xmlns:sodipodi="http://sodipodi.sourceforge.net/DTD/sodipodi-0.dtd"
   id="svg2"
   height="135.375mm"
   width="74.06mm"
   version="1.1"
   viewBox="0 0 742.2 1212.4"
   sodipodi:docname="SouthAmerica.svg">
  <metadata
     id="metadata4540">
    <rdf:RDF>
      <cc:Work
         rdf:about="">
        <dc:format>image/svg+xml</dc:format>
        <dc:type
           rdf:resource="http://purl.org/dc/dcmitype/StillImage" />
        <dc:title></dc:title>
      </cc:Work>
    </rdf:RDF>
  </metadata>

  <!-- <style>
    fill: #78787d;
    stroke: transparent;
    stroke-width: 2px;
    transition: fill 1s;
  </style> -->

  <!-- <script
     xlink:href="../js/SouthAmerica.js"
     id="script3337" /> -->

  <g
     id="layer1"
     transform="translate(-3.78,-18.164516)">
    <g
       id="g5407">
    <path
        id="Ecuador"
        d="m 5.337331,260.98254 c 2.9435602,0.87929 3.0314313,-3.30777 2.8556881,-4.98262 -0.1318073,-1.33986 -0.7468632,-2.38664 -1.2301565,-3.64274 -0.7907975,-2.1354 1.7134039,-3.72651 0.790801,-5.82005 -0.966543,-2.26103 -3.6464882,-5.27569 0.7468627,-5.69441 1.8452087,-0.16748 2.5481377,-0.83741 2.8996227,-2.5541 0.439355,-2.17728 1.669468,-1.67486 3.602552,-1.96793 -3.207133,-0.29311 -3.558616,-4.27083 -1.581599,-6.11313 2.943516,-2.80535 4.96447,-4.81513 5.228084,-9.00223 0.04394,-1.17238 -1.801275,-6.65743 -0.615099,-7.32737 1.318027,-0.75368 6.546111,-4.43828 6.590048,-0.83741 -0.790798,-2.17727 2.02091,-3.14032 3.646488,-3.68461 1.713404,-0.54435 5.447718,-2.76349 5.799202,-0.62807 0.702926,-1.67486 1.405854,-3.51716 2.636009,-4.98262 3.91006,3.39151 9.928943,9.63024 15.728191,9.5884 1.801232,0 1.845167,2.05167 3.602508,2.55412 2.284567,0.66992 0.263613,5.06633 4.305479,5.02447 2.987496,0 5.359891,1.33986 8.523128,1.38174 1.010433,0 3.338939,1.25612 3.77825,-0.46059 0.13181,-0.5443 -0.922604,-1.08864 -0.131805,-1.46547 2.899626,-1.33987 5.096277,1.00491 6.765791,2.93096 2.592072,2.97282 6.106709,3.05656 9.313876,5.06635 -1.669456,0.37684 -3.338932,0.0837 -5.008398,-0.12562 -0.175741,1.08865 3.42681,4.39643 4.129735,5.27574 2.064845,2.63787 0.571116,5.27569 1.977019,8.41601 -1.054419,0.1256 -2.020953,-0.12561 -2.767812,-0.87929 -2.020959,10.50956 -8.523092,19.72111 -17.880954,25.87613 -4.481179,2.93093 -10.280428,3.76835 -15.244896,5.82003 -2.504204,1.04673 -3.91006,2.59598 -5.535638,4.60577 -0.571118,0.54429 -1.098303,1.1724 -1.581596,1.88418 -0.307503,1.08865 0.351487,1.71672 -0.527186,2.76347 -0.922604,-4.22894 -2.899624,4.01961 -3.1193,4.4383 -1.493728,2.51225 -2.987454,6.11311 -2.811706,9.08597 0.175741,3.55899 -2.548141,3.39152 -3.470748,6.19686 -0.922606,2.84719 -0.746865,3.34964 -3.60255,3.30777 -3.470745,-0.0837 -4.305482,-3.72648 -5.403828,-6.11311 -1.405856,-3.09842 -2.943516,-0.66993 -5.09628,-1.80044 -1.493724,-0.75371 -3.163192,-3.68463 -5.052339,-1.88418 -2.548141,2.4285 -5.27202,1.75855 -2.548141,-1.63296 -1.977017,-0.25126 -2.372394,-2.63787 -0.922604,-3.76837 0.834734,-0.66993 2.416332,-0.20935 3.382875,-0.96304 1.493726,-1.1305 -0.658994,-8.24853 -2.416336,-8.96032 2.152721,-1.04677 3.953995,-0.4606 5.272021,-2.84722 1.142243,-2.00979 1.361921,-4.39642 2.064849,-6.5737 0.834733,-2.67973 0.922604,-2.80537 0,-5.31759 -0.878673,-2.38663 -1.186176,-4.73138 0.527227,-6.86681 -3.119303,1.42359 -1.09835,4.68954 -1.581643,7.11803 -0.746862,3.97772 -3.646441,0.4187 -0.615054,0.20936 -1.493725,-0.0837 -1.625533,-1.29799 -1.098348,-2.34476 -1.010435,0.96302 -4.525113,4.98261 -3.734316,6.4481 -2.28457,-1.46549 -3.954036,-3.85211 -6.4143015,-5.06637 -1.7134063,-0.83742 -3.6464894,-1.33988 -3.9979309,-3.47529"
        style="fill:#78787d;stroke-width:2px">
      <title
          id="title4837">Ecuador</title>
    </path>

      <circle
         style="fill:#343530;stroke-width:1.5px"
         id="Aruba"
         cx="144"
         cy="30"
         r="11.5">
        <title
           id="title4585">Aruba</title>
      </circle>
      <path
         id="Peru"
         d="m 7.1829277,294.25 c 1.739999,-3.33 2.669999,-5.73 5.3999993,-8.85 1.2,-1.32 2.13,-2.94 3.6,-4.05 1.05,-0.78 3.36,-1.86 3.45,-3.42 1.71,0.48 3.54,7.47 2.01,8.34 -1.08,0.63 -2.31,0.06 -3.09,1.14 -0.87,1.23 -0.69,2.97 1.05,3.24 -1.44,1.92 -1.02,4.38 1.23,1.89 2.01,-2.13 3,-0.63 4.95,0.96 1.62,1.38 3.54,-0.69 4.83,1.35 1.32,2.13 1.35,5.7 4.47,6.27 2.58,0.48 2.76,0.33 3.51,-2.49 4.98,-19.2 9.06,-26.01 3.33,-5.13 -0.81,2.97 0.87,-5.46 2.16,-8.37 0.63,-1.47 1.17,-2.28 1.2,-4.02 0,-1.08 1.62,-4.32 2.25,-1.41 0.39,-0.66 0.48,-1.35 0.24,-2.1 -0.09,-0.93 1.29,-1.95 1.77,-2.61 1.32,-1.74 2.97,-3.03 4.98,-3.96 4.35,-1.95 9.48,-2.7 13.5,-5.46 8.37,-5.76 14.22,-14.46 16.020004,-24.36 0.66,0.69 1.5,0.99 2.46,0.84 -1.2,-2.82 0.03,-5.37 -1.62,-7.83 -0.66,-0.93 -4.020004,-3.87 -3.810004,-5.04 1.38,0.21 3.030004,0.69 4.410004,-0.06 1.32,-0.75 0.9,-1.02 2.37,-0.48 2.54999,0.93 4.5,1.95 6.26999,4.11 2.28001,2.76 3.63,3.81 4.74001,7.35 0.45,1.47 -0.09,2.67 1.919989,2.85 1.98001,0.15 1.44,0.93 2.82001,2.16 2.64,2.34 4.62,1.08 5.55,5.16 0.69,3.12 0.57,3.9 3.96,4.89 3.63,1.05 0.18,5.28 2.04,7.38 0.99,1.11 2.55,1.5 4.05,1.44 0.9,-0.12 1.8,-0.18 2.73,-0.24 1.2,0 2.64,0.69 3.75,0.66 2.46,-0.09 5.43,-1.86 6.54,-4.05 1.11,-2.25 4.29,2.07 5.67,2.16 2.04,0.15 5.37,-3.03 6.84,-1.95 1.14,0.84 2.07,2.37 3.18,3.12 1.05,0.72 3.63,0.51 4.29,1.23 2.7,2.85 2.73,3.9 0.63,7.26 -1.68,2.64 -5.01,7.29 -5.49,10.41 -0.54,3.72 3.75,0.78 5.37,2.19 1.29,1.11 2.25,2.67 3.27,4.11 0.45,0.66 0.99,0.99 0.75,1.53 -0.15,1.17 -1.2,1.59 -1.92,0.24 -0.33,0.39 -0.66,0.81 -0.99,1.23 -1.92,-2.58 -6.24,-4.32 -8.7,-1.23 -2.76,3.51 -8.88,2.55 -12.93,3.63 -2.07,0.54 -3.09,2.85 -5.19,3.51 -2.16,0.66 -1.44,1.53 -2.91,2.82 -3.48,3.09 -5.91,2.19 -5.94,7.59 0,1.83 0.09,3.42 -0.99,5.01 -1.02,1.53 -2.25,3.06 -1.86,5.04 0.42,2.01 2.19,4.95 -0.09,6.54 -1.92,1.29 -3.75,1.98 -5.34,3.84 -1.14,1.32 -1.74,2.85 -1.38,4.65 0.18,0.84 0.48,1.65 0.87,2.46 -0.96,0.39 -1.95,0.93 -2.67,1.71 -2.79,2.97 5.46,5.61 2.04,7.68 1.71,1.11 2.91,3.15 3.3,5.16 0.21,1.14 1.02,1.56 1.86,2.22 1.05,0.84 0.96,2.13 1.65,3.18 1.23,1.83 3.63,2.7 4.47,4.89 1.02,2.55 -0.93,4.14 -2.34,5.97 3.03,1.59 7.59,0.15 10.68,2.16 1.95,1.29 3.81,4.71 3.03,7.11 4.14,0.51 9.42,1.38 13.14,-1.08 2.28,-1.56 5.34,-7.29 8.46,-7.32 -0.36,1.47 -1.5,1.53 -0.6,3.09 0.96,1.62 -0.63,3.27 -0.54,5.13 0.24,4.86 0.42,9.87 1.02,14.7 1.59,-1.38 2.67,1.44 4.35,1.29 2.28,-0.21 3.93,-2.01 6.27,-1.98 2.22,0 3.9,-0.21 4.56,1.95 0.99,3.36 3.39,6.15 5.1,9.24 1.71,3.06 3.45,6.18 5.22,9.27 1.53,2.64 2.91,4.35 0.36,6.24 -2.22,1.65 -2.49,4.68 -1.68,7.08 0.69,2.04 0.18,4.83 0.3,8.58 0.03,1.59 2.01,3.66 2.07,5.31 0,0.09 -1.41,4.05 -1.53,4.17 -1.5,1.35 -2.4,3.84 -3.09,5.73 -1.26,3.48 2.13,3.75 2.13,6.48 0,1.89 -1.23,2.67 -1.59,4.56 -2.01,-1.35 -6.57,-6.06 -7.44,-2.55 -0.57,2.37 0.51,1.56 0.75,4.59 0.12,0.33 -2.01,-1.95 -1.14,-1.23 0,0.48 -2.85,3.03 2.19,4.83 0.18,-2.37 3.09,1.44 4.5,1.08 0.78,-0.21 0.36,0.87 0.21,2.67 1.56,0.45 4.35,1.2 4.62,0.21 0.18,0.03 1.44,0.18 1.8,0.45 -0.99,5.52 -0.3,4.29 0.42,4.92 -0.54,1.14 0.21,0.87 -0.54,1.89 -1.35,1.74 -2.58,4.44 -4.26,6.06 -0.69,0.69 -1.68,1.05 -2.25,1.92 -1.02,1.56 1.11,0.84 1.38,2.16 0.33,1.68 1.02,1.62 0.42,2.37 -9.96,12.39 -3.33,1.68 -3.75,2.52 -0.9,1.92 1.47,4.44 0.18,6.66 -1.11,1.89 -3.51,2.58 -5.61,2.58 -2.34,0 -4.17,-1.74 -5.76,-3.24 -1.86,-1.74 -3.96,-2.55 -5.97,-4.02 -3.63,-2.52 -3.36,-7.2 -7.71,-8.97 -5.13,-2.07 -8.61,-7.11 -14.07,-8.43 -2.52,-0.6 -5.16,-2.34 -7.38,-3.75 -2.61,-1.62 -5.49,-2.16 -8.22,-3.63 -2.61,-1.41 -4.89,-3.57 -7.53,-5.07 -2.94,-1.65 -5.94,-3.33 -8.97001,-4.98 -2.519999,-1.35 -4.079999,-4.56 -6.059989,-6.6 -2.61,-2.67 -6.36,-4.14 -8.25,-7.5 -1.02,-1.86 -2.34,-4.17 -4.200004,-5.31 -1.59,-0.99 0.51,-4.83 -2.25,-4.35 0.03,-0.48 0.15,-0.93 0.36,-1.35 0.39,0.24 0.81,0.48 1.23,0.75 1.08,-5.49 -1.26,-8.34 -4.05,-12.9 -2.49,-4.08 -4.23,-8.43 -7.77,-11.76 -1.05,-0.99 -2.13,-1.5 -1.83,-2.85 0.33,-1.56 -0.57,-3.33 -1.32,-4.65 -0.72,-1.26 -1.62,-2.64 -2.76,-3.63 -1.05,-0.87 -2.85,-1.29 -3.54,-2.61 -0.06,-0.66 0,-1.35 0.18,-2.01 -0.18,-1.47 -1.14,-3.15 -1.8,-4.5 -1.29,-2.49 -3.06,-4.74 -4.53,-7.2 -1.35,-2.28 -2.1,-5.04 -3.06,-7.53 -2.13,-5.25 -5.76,-9.69 -7.38,-15.3 -3.03,-5.73 -9.48,-10.29 -12.45,-17.85 -3.39,-8.79 -10.38,-14.85 -18.9,-18.48 -0.719999,-0.3 -3.5400003,-0.96 -3.6300003,-1.98 -0.12,-1.41 -0.42,-3.81 1.6200013,-3.57 3.689999,0.45 2.249999,-2.97 1.08,-4.8 -1.650001,-2.52 -3.3600003,-3.6 -3.4500003,-6.78 0.329999,-0.39 0.659999,-0.81 0.989999,-1.23 -0.06,-0.45 -1.499999,-1.8 -1.829999,-2.16 -1.710001,-1.89 -0.66,-3.03 -1.380001,-5.22"
         style="fill:#78787d;stroke-width:2px">
        <title
           id="title4667">Peru</title>
      </path>
      <path
         id="FrenchGuiana"
         d="m 357.04293,195.4 c 2.19,-0.09 3.96,-3.87 4.74,-5.52 1.38,-3.09 0,-6.51 2.13,-9.33 2.49,-3.33 0.18,-5.79 -1.92,-8.46 -2.22,-2.73 -2.13,-7.68 -2.34,-11.04 -0.24,-3.9 0.3,-6.15 3.18,-8.88 1.05,-0.99 2.4,-2.13 2.73,-3.63 0.42,-1.92 0.93,-4.38 3.72,-3.33 1.8,0.66 3.03,2.1 4.95,2.64 2.07,0.54 4.56,0.51 6.33,1.92 2.04,1.62 4.77,7.86 8.01,7.62 -0.54,0.78 -0.9,1.65 -1.11,2.58 0.9,-4.08 7.98,2.91 3.96,5.64 1.92,-0.69 0.81,-2.52 1.77,-3.81 1.47,-1.95 2.61,2.58 2.73,3.57 0.51,4.59 -3,9.48 -5.43,13.17 -2.76,4.2 -4.68,7.77 -6.51,12.54 -0.66,1.74 -1.53,3.24 -3.03,4.44 -0.6,0.48 -1.71,1.62 -2.52,1.86 -1.32,0.33 -2.4,-0.69 -3.84,-0.03 0.57,-1.65 -0.45,-1.68 -1.71,-1.29 -1.77,0.54 -3.27,-0.15 -4.95,-0.72 -0.84,-0.27 -4.14,2.07 -4.68,2.7 -0.96,1.14 -5.55,-1.98 -6.18,-2.64"
         style="fill:#343530;stroke-width:2px">
        <title
           id="title4685">French Guiana</title>
      </path>
      <path
         style="fill:#78787d;stroke-width:2px"
         d="m 164.28693,391.522 c 3.3858,0.1743 6.7716,0.3486 10.1574,0.6972 1.4256,0 0.7128,0.3486 0.891,1.2201 0.3564,1.5687 2.673,0 3.3858,-0.1743 0.7128,-0.1743 2.3166,-0.5229 2.673,-1.3944 0.7128,-1.0458 0.891,-2.7888 2.1384,-3.6603 2.4948,-1.9173 4.455,1.2201 5.8806,-1.9173 1.0692,-2.7888 4.9896,-2.9631 7.3062,-4.5318 2.1384,-1.3944 3.2076,-4.5318 5.8806,-5.229 3.2076,-0.8715 6.7716,-2.2659 10.1574,-1.9173 3.7422,0.3486 2.8512,0.6972 5.346,-1.3944 5.346,3.6603 -0.3564,10.6323 1.0692,15.3384 0.3564,1.0458 1.2474,1.743 1.782,2.7888 0.3564,1.0458 -0.5346,2.2659 -0.891,3.3117 -0.7128,3.1374 2.3166,4.8804 3.0294,7.1463 0.3564,1.5687 0.1782,1.3944 1.782,2.6145 0.891,0.6972 0.5346,2.6145 1.4256,3.1374 1.0692,0.5229 1.782,0 3.0294,1.0458 1.0692,0.8715 2.3166,1.3944 3.564,2.4402 0.1782,0 0.891,1.743 1.0692,1.9173 0.891,0.8715 1.782,1.2201 3.0294,1.3944 1.6038,0.3486 3.0294,1.0458 4.6332,0 1.2474,-0.6972 2.3166,-0.3486 3.564,0.3486 0.891,0.6972 1.782,1.5687 2.8512,2.2659 1.4256,0.8715 1.6038,-0.8715 2.8512,-0.5229 2.1384,0.5229 2.1384,4.5318 4.9896,4.8804 2.4948,0.1743 4.0986,2.0916 6.5934,2.2659 3.3858,0.1743 3.9204,5.0547 6.7716,5.7519 2.3166,0.5229 4.6332,0.1743 6.9498,0 3.2076,-0.3486 6.5934,1.9173 9.2664,3.486 4.455,2.4402 1.6038,4.8804 3.2076,8.3664 1.782,3.8346 2.3166,7.4949 3.2076,11.6781 h -3.2076 c 0,2.9631 4.0986,4.8804 4.6332,8.1921 0.3564,2.4402 0,5.229 1.0692,7.6692 1.2474,2.7888 6.7716,1.9173 9.4446,2.0916 4.9896,0.3486 10.3356,1.0458 15.3252,0 0,2.0916 -1.2474,3.486 -1.2474,5.4033 0,1.5687 0.5346,3.6603 0.891,5.229 0.5346,2.4402 3.564,6.2748 6.4152,6.7977 1.2474,0.1743 2.1384,-0.5229 2.673,1.0458 0.3564,1.2201 1.0692,2.4402 1.6038,3.8346 1.4256,3.3117 3.2076,5.229 2.3166,9.0636 -0.3564,1.743 -1.9602,5.0547 -1.2474,6.972 0.891,2.6145 -0.891,4.8804 -1.9602,7.4949 -1.4256,3.486 -1.4256,5.0547 1.2474,7.4949 2.1384,1.743 -1.2474,2.7888 -2.673,4.0089 0.891,-3.3117 -3.2076,-7.1463 -6.0588,-8.8893 -2.8512,-1.743 -6.0588,-3.1374 -9.2664,-3.8346 -9.0882,-1.743 -18.5328,2.9631 -27.2646,3.8346 -4.0986,0.3486 -6.237,0.6972 -6.9498,5.229 -0.5346,3.6603 -3.2076,5.7519 -3.9204,9.4122 -0.5346,3.3117 0.891,6.6234 0.1782,10.1094 -0.891,4.8804 -1.2474,10.2837 -2.4948,15.3384 -3.7422,-2.4402 -2.1384,-4.0089 -5.7024,-3.8346 -2.673,0 -6.0588,-0.5229 -8.5536,0.1743 -3.0294,0.8715 -2.8512,-1.2201 -4.455,2.6145 -1.2474,3.3117 -1.782,6.4491 -2.1384,10.1094 -3.7422,-5.229 -3.2076,-10.2837 -10.692,-11.5038 -3.0294,-0.3486 -7.4844,0.8715 -10.1574,-0.1743 -2.3166,-1.0458 -3.7422,-3.8346 -6.4152,-4.3575 -0.3564,3.6603 0,4.8804 -3.9204,6.2748 -1.782,0.5229 -3.9204,4.1832 -4.9896,6.1005 -1.4256,2.6145 -2.1384,3.8346 -5.8806,4.1832 -1.2474,0.1743 -3.3858,-0.3486 -4.0986,-1.2201 -2.3166,-6.1005 -3.0294,-9.7608 -5.7024,-14.6412 -2.3166,-4.0089 -1.9602,-7.3206 -3.7422,-10.1094 -0.891,-1.5687 -2.8512,-2.7888 -3.7422,-4.3575 -1.2474,-1.9173 0.5346,-4.0089 0,-4.0089 -1.4256,0 -2.4948,-1.3944 -3.2076,-2.7888 -0.7128,-1.5687 1.0692,-2.6145 -1.0692,-4.5318 3.7422,-2.0916 3.3858,-1.743 0.7128,-5.4033 -0.3564,-0.3486 1.0692,-2.6145 1.2474,-3.1374 0.7128,-1.9173 0,-2.7888 -1.782,-4.3575 -3.3858,-2.7888 -4.9896,-5.229 -6.0588,-9.4122 -0.3564,-1.9173 -3.3858,-6.7977 -1.6038,-8.5407 -6.4152,-1.2201 -6.4152,-10.6323 -9.0882,-11.1552 0.1782,-1.0458 1.0692,-1.743 1.9602,-2.2659 1.2474,-0.8715 1.782,-2.4402 2.673,-3.8346 0.7128,-1.0458 1.4256,-2.0916 2.4948,-2.9631 0,0 -0.1782,-1.9173 0,-1.743 0.891,0.3486 3.3858,0.8715 0.891,-1.743 0.7128,0.3486 3.7422,-2.6145 3.564,-1.743 -0.1782,-3.1374 -5.346,2.0916 -3.2076,-5.229 -3.2076,-0.5229 -0.3564,-1.2201 -7.4844,-5.7519 0.1782,-1.743 2.4948,-3.6603 1.6038,-5.4033 -1.4256,-2.7888 -3.564,-3.3117 -1.782,-6.972 1.0692,-2.2659 2.3166,-4.0089 3.2076,-6.4491 0.891,-2.6145 1.4256,-2.6145 0,-5.5776 -1.4256,-2.6145 -0.3564,-4.7061 -0.5346,-7.6692 -0.1782,-2.2659 -1.6038,-6.972 0,-9.0636 1.782,-1.9173 3.3858,-3.1374 1.782,-5.7519 -4.2768,-7.1463 -8.91,-14.4669 -12.8304,-21.9618"
         id="Bolivia">
        <title
           id="title4840">Bolivia</title>
      </path>
      <g
         id="Brazil">
        <title
           id="title5556">Brazil</title>
        <path
           id="path2818"
           d="m 391.36293,250.77035 c 3.354,-0.82328 11.544,-8.89932 9.594,-12.74132 -1.989,-3.9204 -5.811,1.33294 -6.318,3.44996 -0.351,1.52896 0.273,3.17553 -1.209,4.19484 -1.638,1.09771 -2.886,2.9403 -2.028,5.09652"
           style="fill:#343530;stroke-width:2px" />
        <path
           id="path2840"
           d="m 407.74293,250.37831 c 0.897,1.45055 1.521,3.17553 2.769,4.43006 0.975,0.47045 3.978,1.45055 2.769,0.11762 1.755,0.19602 3.939,-0.82329 5.577,-0.35284 2.067,0.35284 0.39,-1.921 3.744,-0.62727 1.209,-0.82328 1.95,-0.82328 1.95,-2.43065 0.663,2.54827 4.68,0.35284 6.123,-0.31363 2.535,-1.33294 2.808,-3.64598 4.329,-5.88061 1.404,-2.11702 1.872,-4.23404 2.379,-6.7039 0.429,-2.31304 3.159,-6.27265 -0.897,-6.50787 -3.159,-0.15682 -7.215,-2.15622 -10.218,-0.86249 -1.326,0.54886 0.117,1.13692 -1.95,1.01931 -1.833,-0.0784 -3.354,-0.31364 -5.187,-0.78409 -3.315,-0.86249 -7.644,-2.35224 -9.828,1.33294 -1.17,2.03861 -2.457,4.7829 0.195,5.56698 -0.975,-0.19602 -0.78,0 -1.755,-0.23522 -0.39,1.13691 0.39,1.64657 0.351,2.70508 -0.039,1.21532 -1.365,2.39144 -0.39,3.48916 0.819,0.86249 1.755,0.0784 2.847,0.35283 -1.677,2.8227 -0.312,0.23523 -3.315,0.66647 0.624,1.52896 0.429,3.41076 0.351,5.05733"
           style="fill:#343530;stroke-width:2px"/>
        <path
           d="m 104.32293,340.46926 c 0.858,-1.64657 0.468,-2.58747 2.418,-2.94031 1.911,-0.31363 -0.312,-2.62667 0.195,-5.25334 0.858,-4.15563 4.056,-4.50847 6.825,-6.31186 1.95,-1.25453 0.507,-4.03801 0.039,-6.11583 -0.429,-1.84259 0.507,-3.56757 1.56,-5.01812 2.106,-2.94031 -0.117,-7.29196 1.989,-9.87943 1.092,-1.33294 3.471,-1.41134 4.758,-2.70508 1.131,-1.09771 1.17,-2.43065 2.808,-2.97951 2.067,-0.70567 3.237,-2.74428 5.226,-3.52836 1.833,-0.74488 4.68,-0.66647 6.669,-1.09772 2.34,-0.47044 4.329,-0.35283 6.084,-2.23463 0.273,-0.27443 0.702,-1.48975 3.354,-2.11702 0.975,-0.19602 1.17,0.19602 2.535,0.47045 1.131,0.23522 2.379,1.60737 3.042,2.46986 0.312,-0.39204 0.663,-0.78408 0.975,-1.21533 1.755,2.94031 2.652,-2.9011 2.808,-3.95961 0.702,-4.74369 1.404,-9.52659 1.872,-14.30948 0.624,-6.46867 1.326,-13.01575 2.652,-19.36681 0.546,-2.66588 1.677,-5.13573 1.014,-7.95843 -0.624,-2.66587 -2.496,-4.07722 -2.613,-6.93912 -0.078,-2.97951 -1.521,-3.48916 -3.744,-5.52777 -2.457,-2.31304 -2.496,-4.74369 -2.496,-7.684 0,-1.68577 -0.234,-3.842 0.624,-5.41016 2.301,-2.50906 6.942,-3.80279 8.775,-1.921 1.989,1.05851 2.73,0.43125 2.535,-1.84259 -0.234,-3.60677 -5.811,-5.56698 -8.97,-3.842 0,-2.62667 -1.404,-7.17434 -0.156,-9.44818 1.17,-2.19543 5.538,-0.39204 7.098,-0.39204 3.744,0 7.293,-0.0392 11.037,0.0784 0.663,0 2.769,0.23522 2.964,-0.78408 0.078,-0.50966 -0.195,-2.07782 0.468,-2.54827 2.613,-1.68577 1.989,3.64598 4.134,2.58747 1.833,-0.90169 2.847,-3.17553 4.446,-4.43006 2.886,-2.31304 4.329,1.13692 5.031,2.78349 1.365,3.25394 1.365,4.86131 1.053,8.07604 -0.039,0.74488 -0.507,2.43065 0.819,2.19543 1.911,-0.35284 1.521,-1.41135 3.042,0.0784 1.833,1.84259 3.042,4.23403 5.46,5.33175 3.237,1.48975 5.421,-0.86249 7.956,-2.11702 4.992,-2.43065 2.301,3.41075 3.042,4.74369 1.209,-0.39204 3.198,-3.52837 3.939,-4.62608 1.248,-1.80338 1.794,-2.9011 4.017,-3.72439 1.833,-0.70567 2.808,-0.94089 4.212,-2.31304 0.975,-0.94089 3.588,-2.82269 3.471,-0.11761 1.443,-2.43065 3.081,-3.33234 3.822,-6.15503 0.546,-2.23464 1.404,-2.15623 3.393,-2.97951 0.819,-0.35284 4.056,-1.99941 4.446,-2.58747 2.34,-3.52837 0.585,-4.19484 -2.184,-3.842 -1.365,0.15681 -3.627,0.11761 -4.719,-0.78408 -0.624,-0.50965 0.078,-2.97951 -0.117,-3.64598 -1.248,-3.41075 -2.574,-4.7829 -2.496,-10.50669 0,-2.39145 -1.755,-4.03802 -3.627,-5.95902 -1.053,-1.05851 -4.524,-4.97891 -2.886,-6.58628 1.092,0.47045 1.677,2.03861 2.886,2.15622 1.638,0.15682 5.187,-1.0193 5.616,1.41135 0.273,1.72498 0.936,2.15622 2.847,1.921 3.12,-0.39204 4.953,1.09771 5.499,0.15681 2.457,-4.43005 4.368,5.41016 7.839,4.7829 2.223,-0.39204 0.156,-4.62608 1.287,-6.39026 0.663,-1.05851 2.535,-0.50965 3.549,-1.72498 1.443,-1.72498 2.847,0.62727 4.329,0.0784 2.34,-0.78408 7.644,-2.19543 8.736,-4.19484 0.039,-0.11761 2.847,-1.72498 3.159,-1.68577 1.365,0.0784 3.042,0.82328 3.978,-0.82329 1.482,-2.70508 7.098,-4.50847 3.12,-9.6442 1.872,-0.27443 3.471,0 5.343,-0.50965 1.521,-0.43124 2.652,0.0392 3.666,1.60737 2.145,3.29314 -0.585,5.68458 -1.131,8.62489 -0.234,1.48975 3.276,0.70567 5.226,2.62667 0.39,0.39204 -0.507,1.64657 -0.156,2.50906 0.585,1.37214 1.248,2.43065 1.989,3.72439 0.819,1.37214 -3.042,5.09653 -3.354,6.23344 -0.273,1.13692 -0.312,2.43066 -0.624,3.68519 -0.546,2.27383 -1.794,4.03801 -2.067,6.35106 -0.39,3.44995 0.078,6.58628 2.34,8.82091 1.599,1.56816 -0.156,6.58628 1.911,6.42947 -0.156,0.39204 -0.312,0.82328 -0.468,1.21532 2.574,0.27443 4.485,3.13633 5.538,5.09653 0.819,1.56817 2.574,0.11761 3.588,1.60737 0.897,1.33294 2.457,0.9801 3.237,1.13692 0.897,0.15681 1.794,-2.27384 2.808,-3.09712 3.588,-2.97951 6.084,-2.70509 8.97,-3.92041 1.638,-0.70567 2.457,0.27443 3.861,-1.37214 1.833,-2.19543 3.744,-3.41076 6.981,-2.43066 2.613,0.78409 3.978,-0.74487 6.708,0 1.755,0.47045 6.708,2.97951 7.371,-0.0392 0.585,-2.78349 -2.847,-3.01871 -1.521,-5.60618 2.34,-4.74369 2.847,-0.62727 5.655,-1.33294 1.755,-0.43124 3.042,-0.86249 4.68,-1.45055 3.432,-1.25453 3.276,-0.58806 5.85,1.52896 0.507,0.39204 0.117,-0.9801 0.741,-0.0392 0.741,1.17613 1.95,1.56817 3.081,2.43066 1.443,1.05851 2.769,1.21532 4.29,2.03861 0.624,0.58806 1.56,-1.84259 4.914,-3.05792 0.819,-0.43124 1.872,0.62726 2.769,0.70568 1.092,0.0784 5.304,-1.05852 4.524,1.17612 1.209,-0.54886 3.12,0.82328 4.134,-0.0392 1.404,-1.25453 2.652,-1.80339 3.744,-3.41075 1.482,-2.27384 4.329,-9.72261 5.85,-11.99644 4.797,-7.21356 9.282,-13.13337 7.098,-17.91627 0.156,0.98011 2.73,6.23345 3.393,6.97833 -0.546,-1.56816 -1.911,-3.56757 -0.468,-5.17494 3.744,2.31304 4.212,6.03743 3.822,10.11465 0.195,-1.17612 0.312,-2.46985 1.326,-3.33234 -0.117,5.37095 0.39,10.97713 2.301,16.03446 0.741,2.03861 3.939,8.31126 1.599,10.23226 1.794,-0.58806 2.067,1.33294 2.652,2.50906 1.092,2.27384 3.705,1.37214 5.616,2.15623 4.368,1.80338 3.51,6.93912 -0.234,8.62489 0.975,-0.27443 2.067,-0.0784 2.847,0.58806 -1.638,1.64657 -4.524,3.13633 -5.226,5.56698 -0.312,1.21532 -1.755,1.80338 -2.418,2.82269 -1.014,1.52896 -1.443,3.25394 -2.691,4.66528 -1.677,1.921 -3.822,3.29315 -5.694,5.01812 -2.301,2.07782 -3.51,4.93972 -5.46,7.33117 -1.794,2.19542 -2.457,3.9204 -2.184,6.7823 0.117,1.60737 -2.808,1.88179 -2.925,4.07722 -0.117,2.94031 -2.301,1.37214 -3.822,1.29374 -1.365,-0.0392 -5.772,2.07781 -6.279,3.41075 1.209,-0.27443 7.878,-1.52896 6.045,1.48975 1.248,-1.37214 3.198,-1.25453 4.758,-2.15622 1.755,-1.01931 3.12,-2.15622 5.07,-2.97951 2.496,-1.05851 6.201,-4.19483 7.605,-6.54708 2.63001,2.06833 1.66035,12.83838 3.666,13.56461 0.8736,0.23144 2.11746,0.17295 2.457,1.68577 2.73,0.50966 7.644,-4.43006 8.151,1.21533 -0.234,-1.72498 1.482,-2.07782 2.769,-2.31304 0.624,0 1.092,-0.23522 1.365,-0.86249 0.507,-1.33294 1.95,-0.82328 3.081,-1.09771 -2.38515,5.85169 -0.42507,3.13734 1.794,2.11702 2.34,-1.09772 2.691,-1.41135 4.095,-3.68519 2.262,-3.72438 2.886,-0.94089 5.226,0.43125 -0.32394,-3.26682 1.13058,-2.41921 3.237,-2.78349 -2.79834,-1.09029 -3.61065,-1.31537 -2.106,-2.70508 1.521,-1.45055 -0.117,-4.70449 1.755,-6.58628 1.05453,-1.56955 2.37024,-0.65348 3.042,-0.9017 3.80904,-2.94195 5.81526,0.27004 7.527,-0.23522 -0.86229,-1.27485 3.3381,-1.21224 2.847,0.11761 1.21845,0.30211 1.74372,0.81653 2.886,1.37214 2.23674,0.72961 14.0913,5.28364 14.859,6.35106 1.63422,0.28718 2.37927,1.073 3.393,1.40372 1.92438,1.65171 1.71966,3.27859 3.666,5.26097 0.66339,-3.67469 2.04414,-2.83367 3.939,-2.11702 1.38426,-0.49058 3.62934,1.81379 2.379,3.17553 2.96946,-0.60791 4.03011,0.78117 3.276,2.31304 -1.131,2.15623 -0.585,3.99882 -3.432,4.86131 3.82449,0.45082 3.1296,1.33991 3.315,3.48916 -0.702,1.37214 -1.989,5.68459 -1.521,7.21355 0.546,1.64657 -2.106,3.05791 -0.936,4.31244 0.117,-2.35224 2.925,-3.05791 3.939,-4.93971 0.975,-1.84259 0.312,-4.93971 1.404,-6.50787 0.546,-0.78408 3.042,-2.54827 3.822,-1.21533 -2.7774,4.62936 -1.8147,5.73297 -1.911,6.11584 3.20373,-1.8217 5.43513,-7.65919 9.594,-5.64539 -0.156,-3.8812 7.917,0.39204 9.36,1.21533 1.014,0.54885 6.591,2.86189 6.708,3.9204 1.209,-0.78408 4.446,1.21533 3.822,-1.33294 1.599,0.35284 2.691,1.56817 4.173,2.19543 1.677,0.70567 3.51,0.62727 4.914,1.96021 0,-2.35225 1.404,-2.11702 3.276,-2.15623 3.705,-0.11761 6.981,-1.60737 10.725,-0.78408 6.903,1.45055 13.299,7.33116 18.681,11.5652 1.794,1.37214 3.822,1.60737 5.304,3.41075 1.404,1.68578 2.496,3.56757 3.861,5.33175 1.521,1.96021 3.549,2.8227 4.953,4.7437 1.482,2.03861 4.212,2.27383 5.85,4.39085 1.638,2.11702 4.017,1.25453 5.889,3.09712 2.145,2.11702 5.967,1.25453 8.658,0.9017 6.123,-0.74488 10.647,1.48975 12.441,7.56638 0.663,2.35225 1.716,4.66529 1.755,7.17435 0,0.74487 -0.624,1.9994 -0.039,2.27383 0.663,0.31364 1.014,1.21533 1.287,1.84259 1.092,2.62668 3.003,8.54649 1.56,11.36918 0.39,-0.58806 0.741,-1.21532 1.092,-1.84259 -0.234,2.78349 1.755,6.19424 -1.092,8.27206 0.429,0.0784 0.897,0.19602 1.326,0.35284 -1.131,2.31304 0.663,5.09652 -0.702,7.21355 -1.443,2.15622 -0.351,5.09652 -1.482,7.40956 -1.326,2.62667 -1.794,5.64539 -3.003,8.35047 -1.326,2.9403 -4.29,4.90051 -5.46,7.99763 -0.429,-0.27443 -0.819,-0.62727 -1.209,-0.9409 0.078,1.21533 -0.273,2.78349 -1.482,0.70567 0.195,0.78408 0.702,1.17612 1.482,1.21533 -1.794,3.52836 -4.446,8.19365 -7.41,10.85953 -1.209,1.09771 -2.886,1.52895 -4.134,2.62667 -1.287,1.13692 -2.301,2.62667 -3.861,3.48916 0.234,-1.01931 -0.39,-1.76418 -1.365,-2.07781 -0.117,1.13691 1.287,1.48975 1.092,2.58746 -0.234,1.37215 -1.443,3.21474 -2.808,1.48976 0.663,0.86249 2.262,1.72498 1.287,3.05792 -0.546,0.74487 -2.886,3.33234 -1.911,0.47044 -0.741,1.21533 -0.585,2.74429 -1.716,3.842 0.468,-0.11761 0.975,-0.31363 1.443,-0.47045 -2.691,3.88121 -7.02,23.40483 -14.079,22.22871 1.287,-2.94031 -1.677,-3.48916 -2.574,-5.8022 -0.039,1.33294 -1.521,5.09653 -2.691,2.19542 0.351,1.17613 2.223,1.68578 2.145,2.97951 -0.078,2.27384 -2.964,3.88121 -2.145,6.39027 -1.95,-1.33294 -1.56,2.03861 -1.599,3.44996 0.117,-0.62727 0.312,-1.25454 0.585,-1.8426 0.663,1.72498 0.663,3.21474 0.585,5.05733 -0.468,-0.35284 -0.897,-0.78408 -1.326,-1.21533 3.84237,5.56214 1.44936,10.48605 1.872,17.75944 0.624,4.50847 2.613,9.25216 2.808,13.76063 0.39,7.99763 -4.602,15.4464 -2.379,23.67926 1.209,4.54767 -1.638,5.13573 -3.588,8.58569 -2.262,3.95961 -2.613,8.89932 -2.028,13.32938 0.39,3.17553 2.262,9.56579 -1.443,11.21236 -3.549,1.52896 -0.663,8.46808 -4.914,9.05614 2.964,2.62667 -2.067,5.95902 -3.783,7.56639 -1.443,1.37214 -1.014,2.43065 -1.56,4.31244 -0.741,2.74429 -1.989,5.25335 -1.56,8.19365 0.195,1.52896 1.326,3.92041 0.156,5.29255 -1.872,2.27384 -4.797,2.23463 -7.176,3.64598 -1.599,0.94091 -3.276,2.7443 -3.978,4.50848 -0.468,1.0977 0.039,2.15622 0.39,3.21471 0.312,1.09773 -1.053,1.64658 -0.507,2.90112 -1.677,-1.8426 -6.513,-0.90171 -8.658,-0.47046 -1.209,0.23523 -3.237,0.94089 -4.446,0.23523 -9.75624,1.086 -8.37408,-2.39736 -12.714,-0.23523 -1.755,1.05852 -2.574,0.19602 -4.446,0.43125 -1.326,0.1176 -3.549,0.27444 -4.017,1.88178 -0.429,1.45056 1.833,2.11704 2.691,2.74431 -1.95,1.56816 -4.524,-0.0784 -5.811,1.76418 -1.092,1.60737 -2.847,1.80339 -4.368,2.86188 -1.326,0.90171 0.273,2.35224 -1.014,3.21474 -1.833,1.21533 -5.031,-2.23464 -7.683,0 -0.273,0.19602 -2.106,3.56757 -2.769,2.74428 -0.546,-0.70566 -0.117,-1.76418 -1.56,-1.52895 0.741,2.23464 -2.145,2.46984 -3.744,3.56757 -1.95,1.29372 -2.886,3.17553 -4.446,4.86129 -1.677,1.8426 -4.329,2.35227 -6.162,3.99882 -1.56,1.41135 -2.457,3.56757 -4.251,4.74369 0.39,0.23523 0.819,0.47046 1.209,0.7449 -1.30767,2.68695 -4.39491,3.14742 -6.708,2.11701 0.546,2.54826 -0.858,4.038 -3.315,1.9602 0,1.45056 3.471,2.97951 4.797,2.8227 -2.99055,4.40484 -0.44373,1.14051 -1.872,7.91922 -1.10772,2.07891 -2.03841,2.34249 -0.858,2.90109 1.443,0.62727 0.585,3.72438 0.936,4.9005 4.05402,3.73689 1.62279,13.89783 3.588,17.68104 2.30436,6.04374 -0.65874,8.26497 -0.897,10.19307 -1.365,1.92099 -3.549,3.09711 -5.343,4.62606 -1.872,1.60737 -3.159,3.8028 -4.329,5.99823 -2.808,5.29254 -3.666,10.93794 -5.148,16.66173 -1.404,5.37096 -4.056,10.27146 -7.176,14.81913 -5.26725,7.95642 -12.44865,7.55658 -3.744,2.07783 1.755,-0.9801 2.067,-1.80339 2.067,-3.88122 0,-1.33293 1.19142,-3.24738 2.16513,-2.0571 -0.585,-1.9602 -0.0591,-2.37294 1.11087,-3.70587 0.936,-1.09773 1.131,-2.39145 0.936,-3.8028 -0.117,-1.01931 -1.209,-4.46928 1.014,-2.35224 0.039,-0.50967 -0.663,-3.84201 -1.521,-3.52839 -0.507,0.15684 -3.57642,1.0629 -3.57642,1.72935 -0.78,-0.90168 -1.18158,-0.67083 -2.39058,-1.10208 -1.404,-0.47043 -1.131,-2.50905 -2.418,-3.21474 -0.078,3.37155 1.482,3.21474 2.808,5.6454 -4.09179,1.68402 -1.29627,4.67451 -2.067,3.33234 -0.39,1.13691 0.663,2.66589 0.078,3.64599 -0.234,0.43125 -1.17,0.35283 -1.014,1.01931 0.507,2.78349 -1.833,4.31244 -3.822,5.44935 -1.56,0.8625 -0.936,2.8227 -1.365,4.31244 -1.43322,3.64833 -1.77081,8.24604 0.624,6.50787 0.234,1.56819 -0.897,3.01872 -1.521,4.35168 -1.014,2.15622 -0.936,4.78287 -1.287,7.13514 -0.624,4.58685 -3.432,7.33116 -5.85,11.05554 -0.936,1.48974 -1.69158,1.09011 -2.47158,0.77646 -0.819,-0.31362 -1.18026,-1.9809 -1.60926,-2.92179 -0.741,-1.72497 -1.15974,-2.74974 -1.27674,-4.27869 -0.117,-1.9602 1.22358,-2.94576 2.08158,-4.59234 1.326,-2.54826 -1.56,-3.68517 -3.315,-4.46925 -1.989,-0.90171 -2.847,-2.66589 -4.056,-4.43007 -2.847,-4.07721 -6.825,-3.88119 -9.477,-6.78231 -2.184,-2.31303 -4.797,-3.56757 -7.488,-5.05731 -0.975,-0.47046 -1.326,-1.45056 -2.34,-1.88181 -2.808,1.76421 -6.201,-4.31244 -9.126,-6.58626 1.482,2.11701 -4.524,5.72379 -4.368,1.21533 0.078,-3.56757 -4.329,-5.84142 -6.825,-7.76241 -1.872,-1.41135 -5.577,-6.31185 -8.385,-4.27326 -0.936,0.66648 -0.975,1.92102 -2.457,2.31306 -1.365,0.35283 -3.315,0.15681 -4.563,-1.37214 2.613,-1.01931 1.911,-5.21415 4.953,-6.42948 2.691,-1.05852 3.744,-4.86129 4.836,-7.64478 1.17,-3.17553 3.432,-5.84142 5.031,-8.82093 0.78,-1.48974 2.73,-5.48856 4.797,-3.33234 0.468,-0.9801 0.039,-1.88181 -0.975,-2.19543 1.638,-1.99941 3.354,-4.58688 5.655,-5.8806 2.34,-1.29375 2.769,-2.35227 4.368,-4.11645 1.599,-1.76418 3.666,-2.03859 5.694,-3.0579 1.443,-0.74487 4.212,-3.95961 6.084,-3.05793 0.39,-3.01872 0.312,-5.48856 0.234,-8.54649 -0.078,-3.68517 -0.429,-5.60616 -1.677,-9.05613 -0.858,-2.43066 -1.443,-5.21415 -4.134,-6.19425 -1.56,-0.54885 -4.524,-0.74487 -4.875,1.45056 -0.468,-0.43125 -1.677,-0.1176 -2.574,-0.70566 -0.624,-0.39204 -0.273,-2.07783 -0.312,-3.17553 -0.156,-2.90112 0.741,-4.97892 1.092,-7.99764 0.234,-2.03862 -0.234,-5.01813 0.663,-6.89991 0.936,-1.9602 -1.716,-3.52836 0.468,-5.13573 -1.482,-1.01931 -2.613,-2.86191 -4.602,-3.09714 -2.067,-0.23523 -3.588,1.45056 -5.382,2.07783 -5.187,1.80339 -6.318,-3.25395 -7.293,-7.13514 -0.546,-2.31306 -2.223,-4.70448 -2.652,-7.05675 -1.482,-5.41014 -3.081,-7.44876 -4.914,-10.11465 -2.067,-0.50964 -4.095,-0.94089 -5.85,-2.46984 -1.833,-1.60737 -1.833,-0.39204 -3.51,2.27382 -3.393,5.5278 -2.886,-0.0392 -4.524,-0.27441 -2.34,-0.27444 -5.148,-0.23523 -7.293,-1.37215 -1.092,-0.58806 -5.577,-1.05851 -5.928,-2.46985 -0.312,-1.45056 0.741,-2.8227 1.092,-4.15563 0.312,-1.29374 -0.975,-3.29315 -0.468,-4.62609 0.897,-2.31303 -0.039,-4.46926 0.39,-6.7431 0.351,-1.72497 -2.73,-2.39144 -1.053,-4.35165 -1.989,-0.78408 -2.769,-4.23404 -3.822,-6.42946 -2.223,-3.13633 5.343,-3.25394 2.106,-5.7238 -3.861,-2.97951 -2.379,-5.21414 -0.546,-9.40897 0.468,-1.09772 2.106,-3.44996 1.521,-4.54767 -1.014,-1.80339 -0.117,-3.17553 0.312,-5.21415 1.989,-5.48856 0.624,-6.23344 -1.17,-10.23226 -1.677,-2.46985 -1.521,-6.54707 -3.081,-5.91981 -2.691,1.09771 -6.318,-2.43065 -7.293,-5.37096 -0.624,-1.9602 -1.404,-4.31244 -1.482,-6.39026 -0.039,-2.03861 1.482,-3.8028 1.404,-5.99822 -4.173,0.9409 -8.58,0.62726 -12.792,0.19602 -2.652,-0.23523 -8.736,0.50965 -10.686,-1.60737 -1.755,-1.921 -1.365,-5.99822 -1.794,-8.42887 -0.546,-3.21474 -4.368,-5.13573 -4.524,-8.07604 1.053,-0.0784 2.106,-0.11761 3.198,-0.11761 -0.702,-3.52837 -1.872,-8.42888 -3.081,-11.09475 -0.663,-1.45055 -0.741,-1.80339 -0.624,-3.21474 0.117,-1.80338 0.195,-3.21473 -1.287,-4.39085 -3.705,-2.94031 -7.722,-4.90051 -9.75,-4.66529 -6.786,0.74488 -4.992,0.19603 -7.059,0.15682 -1.677,0 -3.9,-3.72438 -4.719,-4.8221 -0.858,-1.13692 -1.482,-0.58806 -2.652,-0.70567 -1.014,-0.0784 -3.315,-1.76418 -4.251,-2.23463 -0.624,-0.31364 -1.599,-0.19602 -2.457,-0.62727 -1.989,-0.9409 -2.028,-2.46985 -2.886,-3.60677 -1.092,-1.45055 -1.326,-1.13692 -2.808,-0.47045 -1.716,0.74487 -2.652,-1.21533 -3.861,-1.99941 -3.081,-1.99941 -3.978,0.31363 -7.098,-0.39204 -3.588,-0.82329 -3.939,-1.09771 -5.889,-3.842 -0.897,-1.25453 -4.212,-3.37155 -5.733,-3.52836 -1.482,-0.11762 -0.936,-2.27384 -1.833,-3.29314 -0.624,-0.70568 -2.106,-0.58807 -2.106,-1.68578 0,-2.43065 -2.808,-4.58688 -2.964,-7.21355 -0.078,-1.45055 1.014,-2.35224 1.17,-3.842 0.117,-1.21532 -1.599,-1.45055 -1.833,-2.82269 -0.195,-1.17612 -0.312,-2.62667 -0.351,-3.41075 -0.039,-1.48976 0.702,-2.74429 0.936,-4.07723 0.468,-2.54826 0.624,-6.58628 -1.677,-8.23285 -0.546,0.50965 -1.053,1.88179 -1.989,1.84259 -2.379,-0.15682 -4.212,-0.27443 -6.591,0.0784 -2.574,0.43124 -6.981,0.9801 -8.697,2.9011 -2.847,3.25394 -3.237,5.37096 -7.176,5.48857 -0.858,0 -3.354,1.76418 -3.549,3.13633 -0.273,1.88179 -2.379,1.09771 -3.471,0.9801 -1.716,-0.15682 -3.12,1.37214 -3.354,2.74428 -0.312,1.80339 -2.028,2.9403 -4.017,3.44996 -0.624,0.15682 -3.666,1.72498 -3.042,-0.58806 0.156,-0.62727 -1.794,-0.70568 -3.237,-0.78408 -3.744,-0.11762 -9.204,-0.86249 -12.012,-0.70568 -1.755,0.0784 -3.705,2.23464 -5.655,1.64657 -1.131,-0.35283 -2.418,-2.23463 -3.666,-1.17612 -0.546,-4.50847 -0.858,-9.52659 -0.975,-13.79983 -0.039,-2.19543 0.234,-2.62667 0.897,-4.50847 0,-0.58806 -0.117,-1.13691 -0.546,-1.60736 -0.624,-1.21533 0.507,-1.76419 0.78,-2.8619 -2.847,0.27443 -5.889,5.41016 -8.229,7.25275 -3.432,2.74429 -9.204,1.60737 -13.143,1.09772 0.663,-2.11702 -1.092,-5.44937 -2.691,-6.78231 -2.847,-2.43065 -7.761,-0.82328 -10.881,-2.43065 3.588,-4.70449 2.418,-6.07663 -1.443,-10.07544 -0.819,-0.82329 -1.014,-1.45056 -1.326,-2.50906 -0.351,-1.13692 -1.56,-1.64657 -2.301,-2.54827 -1.599,-2.03861 -1.248,-4.62608 -3.783,-6.31185 2.535,-1.45055 -2.262,-4.31245 -2.925,-5.88061"
           style="fill:#343530;stroke-width:2px" />
      </g>
      <path
         id="Venezuela"
         d="m 113.74293,94 c 3.39,-3.96 5.07,-8.22 6.15,-13.23 1.02,-4.8 2.13,-8.52 4.65,-12.72 2.04,-3.42 6.69,-5.4 8.67,-8.97 2.22,-4.08 6.06,-3.03 9.72,-5.28 -1.47,3.6 -5.4,2.19 -7.56,4.77 -1.83,2.19 0.12,6.93 2.46,7.86 -2.13,-0.09 -0.06,4.59 0.12,5.49 0.63,2.73 -2.01,5.49 -3.84,7.2 -2.37,2.22 -3.54,4.95 -2.07,7.89 0.57,1.11 0.75,2.55 1.86,3.36 1.2,0.87 1.41,0.48 1.2,2.1 -0.42,3.42 2.19,4.17 4.95,2.61 2.85,-1.59 3.96,-3.99 4.35,-7.14 0.45,-4.02 -1.35,-6.3 -3.39,-9.6 -0.81,-1.29 -1.5,-2.76 -1.98,-4.23 -0.42,-1.32 0.69,-3.12 -0.33,-4.2 1.53,0.18 2.88,-2.13 4.08,-2.82 2.16,-1.23 4.2,-2.88 6.75,-3.3 2.19,-0.36 3.93,-0.66 5.88,-1.83 0.72,-0.42 2.88,-2.16 3.84,-1.71 -0.12,-0.66 -0.45,-1.26 -0.96,-1.71 0.93,0.36 3.81,2.76 4.8,1.65 0.66,-0.75 0,-0.75 -0.87,-1.11 -1.23,0.09 -2.97,1.17 -4.92,-0.99 0.27,-1.68 -1.14,-10.68 3.9,-8.61 2.28,0.93 1.83,5.88 2.16,7.83 0.78,4.29 5.46,1.44 8.55,2.52 3.45,1.17 7.77,2.1 9.27,6.09 0.9,2.43 -1.47,7.92 2.61,8.79 4.86,1.02 11.04,-1.2 15.87,-1.83 4.14,-0.54 8.43,-1.41 10.98,2.25 1.05,1.5 2.52,2.76 4.26,3.36 1.41,0.48 2.91,0.81 4.35,1.2 6.87194,3.495237 6.24627,-1.01586 11.31,-1.71 1.86,-0.15 2.28,-2.1 3.84,-2.82 2.13,-0.99 4.56,0.9 6.78,-0.33 -1.86,-1.95 -6.3,0.12 -7.56,-2.34 h 3.24 c 1.5,0 1.95,-0.93 3.06,-0.96 0.54,0.18 1.05,0.39 1.59,0.66 1.5,0.27 3.09,0.06 4.59,-0.15 4.43322,0.412908 12.58687,-0.936363 13.35,1.44 -2.85,1.47 -6.21,-0.87 -8.88,1.35 0,0 0.37283,0.808782 0.12,2.07 2.34,-1.35 3.67021,-0.411069 3.61021,2.348931 -0.79342,1.514034 -3.22021,1.101069 -4.36021,1.071069 0.81,3.03 5.85,0.9 5.31,-1.83 1.35,0.18 1.92,1.71 2.04,2.88 0.12,1.53 1.59,3.27 1.41,4.71 1.86592,-2.788881 0.27939,-3.671244 1.95,-2.94 0.66,0.15 1.32,0.36 1.98,0.6 -0.12,-0.12 -4.2,-2.28 -1.8,-1.98 2.28,0.27 5.25,2.67 4.05,5.19 0.70595,-2.280834 4.13183,-2.953566 5.61,-1.08 1.38,2.25 3.87,1.32 5.7,2.73 4.86,3.72 -0.84,3.75 -2.07,7.2 0.6626,-0.570876 -0.37451,3.632643 -1.2,5.07 -0.51,0.9 -0.36,1.68 -1.53,1.68 -1.02,0 -4.23,-0.93 -4.92,0 1.5,0.84 3.96,1.08 4.83,2.82 0.96,-1.26 2.34,-2.16 2.58,-0.12 1.41,-1.53 2.49,-2.28 4.56,-2.7 1.95,-0.39 2.7,1.65 4.5,-0.06 3.12,-3 8.79,4.44 7.02,5.34 -1.74,0.87 -2.76,2.13 -4.17,3.51 -1.32,1.26 -3.63,1.86 -4.71,2.97 -0.75,0.78 -1.35,1.89 -2.04,2.76 -1.38,1.77 0.63,2.88 0.48,4.8 -0.09,1.17 0.33,2.52 1.74,1.77 1.65,-0.9 2.82,1.26 1.56,2.49 -1.38,1.32 -3.45,1.8 -4.8,3.12 -0.63,0.63 -1.74,-0.27 -2.43,-0.33 -0.57,-0.03 -0.9,1.08 -1.5,1.29 -5.19,2.01 0.06,5.22 -2.67,8.25 -0.69,0.75 -3.48,2.52 -2.49,3.87 1.68,2.28 3.42,4.59 5.22,6.78 2.13,2.58 6.54,6.72 2.4,9.69 -1.38,0.99 -2.37,2.85 -3.75,3.87 -0.75,0.54 -3.42,-0.06 -3.6,0.18 -0.75,1.2 -3,0.93 -3.03,2.22 -0.03,1.5 -2.73,1.53 -3.78,2.01 -2.01,0.96 -4.5,2.22 -6.75,1.11 -1.5,-0.75 -2.91,1.11 -4.5,1.44 -1.92,0.36 -1.95,2.37 -1.5,3.93 0.63,2.25 -1.23,3.99 -3.15,2.28 -1.29,-1.17 -1.92,-2.7 -3.12,-3.96 -1.56,-1.62 -2.58,0.54 -4.11,0 -2.1,-0.75 -2.91,-0.12 -5.04,-0.36 -1.65,-0.15 -1.29,0.45 -1.92,-1.56 -0.6,-1.89 -3.09,-2.07 -4.74,-1.74 -2.19,0.42 -2.13,-1.47 -3.84,-2.19 -1.41,1.41 1.2,4.62 2.07,5.67 2.49,3.03 4.56,3.57 4.62,7.89 0,1.38 0.06,2.79 0.42,4.14 0.45,1.71 2.28,3.48 2.04,5.31 -0.39,3.06 -0.42,4.44 3.33,4.53 1.08,0 5.13,-0.81 4.77,1.14 -0.63,3.63 -2.52,3.33 -4.29,4.59 -1.32,0.93 -3.72,1.14 -4.26,2.4 -0.6,1.41 -0.45,2.46 -1.44,3.84 -0.87,1.23 -2.04,2.19 -2.82,3.51 0.03,-3.3 -5.13,1.77 -6.09,1.95 -2.31,0.45 -3.81,1.77 -5.19,3.69 -0.93,1.26 -2.85,4.65 -4.41,5.16 -1.02,-1.23 0.27,-2.76 -0.03,-4.11 -0.54,-2.25 -3.9,-0.06 -4.77,0.54 -5.04,3.6 -8.88,-0.3 -12.18,-4.62 -1.53,-1.98 -1.38,-4.35 -2.07,-6.69 -0.81,-2.7 -2.79,-6.45 -2.67,-9.27 0.09,-2.22 -5.85,-9.48 -8.55,-7.47 -0.06,-2.49 3.96,-5.13 5.7,-6.51 3.03,-2.37 0.99,-4.92 -1.11,-7.35 -4.74,-5.37 -3.36,-14.58 -3.36,-21.06 0,-2.31 0.75,-3.42 2.16,-4.98 0.9,-0.99 0.45,-3.06 1.17,-4.38 0.78,-1.41 2.04,-2.43 2.43,-3.69 0.69,-2.22 -2.37,-4.47 -3.66,-3.9 -3.06,1.38 -5.52,1.71 -8.19,1.53 -1.2,-0.06 -3.81,1.2 -6.57,0.45 -1.95,-0.51 -1.83,0.21 -4.32,0.57 -0.42,0.06 -4.02,-1.05 -3.69,-0.84 -1.35,-0.87 -1.98,-2.79 -2.85,-4.11 -1.2,-1.83 -2.37,-3.66 -3.48,-5.58 -0.57,-0.96 -1.35,-2.16 -2.76,-1.74 -2.61,0.78 -4.29,-1.74 -6.78,-1.98 -1.59,-0.15 -2.28,1.11 -3.75,1.47 -2.13,0.54 -4.17,-0.93 -6.33,-0.54 -1.38,0.24 -2.19,-0.63 -3.63,0.06 -1.41,0.69 -3.3,-0.12 -4.11,-1.41 -0.6,-0.99 -0.9,-1.71 -1.2,-2.82 -0.36,-1.53 -2.52,-1.35 -3.3,-2.46 -1.47,-2.1 -0.3,-6.54 0.93,-8.28 2.4,-3.27 -1.68,-6.51 -2.76,-8.88 -1.11,-2.49 0.09,-8.31 -3.57,-7.38 0.06,-0.87 -0.03,-1.74 -0.36,-2.58 -1.44,1.23 -2.97,2.01 -4.92,1.95"
         style="fill:#343530;stroke-width:2px">
        <title
           id="title4665">Venezuela</title>
      </path>
      <path
         id="Colombia"
         d="m 36.342927,206.5 c -0.45,-0.12 -0.9,-0.24 -1.35,-0.36 0.48,-2.94 3.66,-3.87 6.06,-2.46 1.29,-2.49 -1.92,-4.86 -0.63,-7.41 1.62,-3.27 5.34,-3.09 8.46,-3.63 0.57,-0.09 0.36,-1.5 1.17,-1.02 0.57,0.33 1.92,0.66 1.92,-0.36 0,-2.04 2.73,-4.62 1.08,-5.97 2.94,-0.06 3.48,-3.84 4.35,-5.85 0.66,-1.56 2.01,-2.67 3.42,-3.6 -1.74,-1.41 0.3,-1.62 0.84,-3.06 -1.2,0.03 -2.76,1.02 -3.21,-0.72 0.93,-0.24 1.65,-0.93 1.59,-1.95 -0.93,-0.3 -2.82,2.16 -3.03,0.24 -0.18,-2.01 0.93,-2.4 2.52,-3.18 -2.49,0 -1.35,-3.27 -0.99,-4.62 0.66,-2.64 0.06,-6.21 -0.15,-8.91 -0.18,-2.04 -1.11,-3.99 -1.23,-6.03 -0.06,-1.11 3.51,-1.53 2.91,-4.17 -0.36,-1.56 -3.96,-5.13 -1.56,-6.03 2.16,-0.81 0.3,-5.34 -0.63,-6.39 -1.89,-2.07 -2.1,-5.22 -4.14,-6.99 -1.32,-1.14 0,-2.61 0.75,-3.69 0.93,-1.26 0.03,-2.94 1.14,-4.02 0.6,0.72 1.05,1.53 1.35,2.46 2.64,-1.83 6.39,-5.43 5.16,-9 -1.23,-3.63 -3.57,-4.41 -1.32,-7.86 1.26,1.62 2.67,3.87 3.75,5.7 1.11,1.86 3.93,2.43 1.41,4.74 3.33,3.81 1.68,-7.14 1.23,-8.31 -0.66,-1.68 7.17,-5.58 8.16,-6.96 1.26,-1.71 2.16,-4.59 4.26,-5.52 1.17,-0.51 4.020004,-0.21 4.680004,-1.53 0.93,-1.89 -0.870004,-2.55 -0.48,-3.72 0.69,-2.07 0.96,-4.68 2.19,-6.51 -1.8,-0.18 -1.32,-0.78 -0.09,-1.41 1.11,-0.57 0.69,-2.1 0.66,-3.06 -0.06,-2.25 3.74999,-2.88 3.74999,-3.69 0,-1.17 4.65001,-5.76 5.76001,-5.73 2.12999,0.03 3.959999,1.95 6.119989,1.98 -1.79999,-0.21 -1.56,1.71 -3.209989,1.71 1.259999,4.65 4.019999,-1.53 4.649999,-3.21 1.56,-4.17 3.42,-3.87 7.86,-3.15 6.03,0.99 7.98,-2.88 12.75,-5.73 2.61,-1.56 10.26,-3.42 7.89,-7.92 0.99,-0.27 3.84,-1.17 2.22,0.84 1.83,-0.27 0.66,-2.1 2.7,-3.03 2.43,-1.08 4.59,-1.08 6.69,0.63 7.14,5.94 -8.22,8.34 -10.53,11.25 -1.23,1.56 -1.68,3.84 -3.15,5.19 -0.99,0.93 -2.64,0.75 -3.54,1.77 -1.68,1.92 -3.48,4.83 -4.56,7.14 -1.62,3.42 -1.68,6.96 -2.61,10.56 -0.9,3.54 -3.51,7.83 -5.88,10.62 1.95,0.03 3.48,-0.69 4.95,-1.95 0.3,0.81 0.42,1.68 0.36,2.58 3.75,-0.96 2.49,5.64 4.38,8.04 2.7,3.42 3.45,5.43 1.86,9.66 -0.78,2.1 -2.07,6.63 0.78,7.71 3.27,1.2 1.53,5.07 4.89,5.88 1.35,0.3 2.64,-0.54 3.99,-0.66 2.16,-0.21 4.14,1.2 6.33,0.99 1.92,-0.15 3.57,-1.53 5.55,-1.5 1.74,0.03 3.06,1.71 4.74,2.1 1.2,0.27 2.34,-0.72 3.48,0.21 1.47,1.26 2.46,3.6 3.54,5.19 0.99,1.47 1.92,2.94 2.82,4.47 1.17,1.95 1.65,1.41 3.42,1.92 2.55,0.72 4.92,-1.38 8.28,-0.06 1.02,0.39 3.27,-0.57 4.38,-0.6 2.4,-0.03 4.47,0.12 6.6,-1.14 2.4,-1.44 6.39,1.38 5.13,3.9 -0.72,1.44 -2.49,2.52 -2.79,4.14 -0.39,1.98 0.39,3 -1.47,4.29 -2.52,1.71 -1.5,8.58 -1.77,11.37 -0.27,3.3 1.08,6.84 1.71,10.32 0.45,2.61 5.55,6.12 4.71,8.79 -0.99,3.3 -7.29,4.59 -7.14,8.55 2.25,-1.68 7.83,4.5 8.55,6.39 -0.15,0.51 -0.09,1.02 -0.21,1.53 0.27,0.93 1.02,1.89 1.02,2.91 0,2.13 1.23,4.38 1.77,6.51 0.21,0.81 1.32,4.05 1.53,5.37 0.21,1.29 -0.45,0.45 -1.5,0.75 -1.71,0.51 -2.25,-0.27 -1.83,-1.26 0.69,-1.65 -0.27,-12.48 -4.62,-12.3 -1.68,0.06 -6.27,8.76 -7.56,3.96 -0.48,-1.77 -2.79,-2.58 -2.52,0 0.27,2.91 -3.42,1.83 -5.43,1.83 h -8.97 c -1.98,0 -4.11,-1.14 -6.06,-0.3 -2.91,1.26 -0.57,7.74 -0.87,10.14 2.34,-1.56 7.86,-0.21 8.94,2.37 0.39,0.93 0.6,4.17 -1.2,3.99 -1.11,-0.09 -1.8,-1.59 -3.03,-1.38 -2.67,0.45 -7.41,1.2 -7.59,4.32 -0.24,3.81 -0.57,9.12 2.73,11.61 1.65,1.23 3.6,2.34 3.51,4.71 -0.06,2.28 1.08,3.15 1.98,5.07 2.01,4.35 -0.6,10.32 -1.2,14.79 -1.47,10.74 -1.23,22.44 -4.59,33 -0.78,-1.95 -2.37,-3.39 -3.78,-4.95 -1.62,-1.77 -3.66,0 -5.55,-1.05 -1.74,-0.96 2.64,-8.25 3.24,-9.27 1.17,-1.98 4.71,-5.91 2.91,-7.83 -0.78,-0.81 -1.56,-3 -2.82,-2.55 -2.22,0.78 -4.77,-2.76 -5.34,-3.21 -2.13,-1.74 -3.96,0 -6.24,1.11 -2.16,1.02 -3.57,-1.77 -5.58,-2.1 -1.2,-0.18 -4.65,5.1 -8.67,3.87 -1.41,-0.42 -2.37,-0.39 -4.11,-0.18 -2.4,0.3 -3.69,0.06 -5.58,-1.38 -0.3,-2.07 1.5,-5.13 0.9,-6.87 -0.9,-2.34 -4.5,-1.05 -5.1,-3.45 -0.3,-1.68 -1.14,-3.63 -1.83,-5.22 -0.72,-1.65 -2.88,-0.93 -3.93,-2.4 -1.11,-1.59 -1.83001,-2.04 -3.33,-2.52 -1.890009,-0.63 -3.000009,-3.18 -3.150009,-4.89 -0.27,-3.24 -6.27,-8.46 -9.32999,-9.36 -0.57,-0.15 -1.2,-0.84 -1.71,0 -0.54,0.87 -0.54,0.9 -1.74,0.33 -1.770004,-0.81 -4.530004,-1.77 -6.030004,-2.94 -1.17,-0.9 -6.6,-7.71 -7.23,-2.85 -0.33,2.49 -9.87,-0.69 -11.88,-1.02 -3.21,-0.57 -0.84,-3.27 -3.21,-4.26 -2.07,-0.87 -1.14,-2.64 -3.84,-2.67 -2.1,0 -6.27,-2.34 -7.83,-3.6 -2.61,-2.13 -4.74,-4.77 -6.75,-7.5"
         style="fill:#78787d;stroke-width:2px">
        <title
           id="title4661">Colombia</title>
      </path>
      <path
         id="Suriname"
         d="m 314.11293,177.1 c -1.47,-0.81 -4.02,-6 -3.99,-7.68 0,-2.43 0.27,-8.55 0.3,-10.77 0,-4.17 5.73,-3 8.67,-3.03 1.35,0 3.93,-3.51 1.02,-4.29 2.94,-3.33 1.77,-10.65 8.16,-9.81 1.98,0.24 12.81,1.14 11.82,4.47 1.38,-2.61 -0.75,-4.44 3.69,-4.41 1.62,0 6.9,-0.18 6.99,2.19 0.84,-1.02 2.52,-0.45 3.63,-0.48 -0.24,-0.15 -3.87,-1.41 -3.36,-1.77 2.37,-1.53 8.61,0.81 11.22,1.23 4.5,0.69 4.29,3.66 2.34,6.81 -2.1,3.42 -5.1,5.37 -4.89,9.72 0.12,3.81 -0.27,8.34 1.62,11.82 1.53,2.73 5.4,5.07 3.3,8.61 -0.69,1.2 -1.44,2.58 -1.8,3.96 -0.33,1.35 -0.06,3.24 -0.48,4.65 -0.99,3.45 -3.81,7.29 -5.04,7.35 -0.99,0.03 -4.62,-2.4 -5.13,-3 -1.74,-2.07 -5.49,0.42 -8.04,0.87 -2.01,0.33 -2.37,0.75 -4.2,-0.15 -1.89,-0.96 -1.77,-0.18 -2.61,1.05 -1.86,2.73 0.66,2.58 1.23,5.61 0.69,3.81 -6.33,1.68 -7.92,0.75 -1.14,-0.66 -3.12,-1.65 -4.11,-2.52 -1.26,-1.14 -1.32,-2.04 -1.32,-3.06 0.03,-2.64 -4.47,-6.12 -4.5,-8.73 0,-0.96 -0.42,-6.09 -1.77,-6.24 -0.93,-0.09 -2.55,0.81 -3.39,-0.09 -0.78,-0.96 -0.78,-2.34 -1.44,-3"
         style="fill:#343530;stroke-width:2px">
        <title
           id="title4683">Suriname</title>
      </path>
      <path
         id="Paraguay"
         d="m 267.82293,557.17 c 1.23,-5.1 1.92,-10.44 2.55,-15.69 0.3,-2.88 -0.06,-5.55 -0.24,-8.43 -0.15,-2.76 1.29,-5.16 2.4,-7.62 1.56,-3.42 0.69,-8.34 5.88,-8.97 5.4,-0.63 10.89,-1.89 16.11,-3.54 8.46,-2.58 14.46,-2.1 22.11,2.13 3.03,1.68 7.29,4.05 7.56,8.01 0.12,2.34 1.95,9.66 4.44,10.41 -1.56,1.86 0.96,2.55 1.38,3.96 0.3,1.05 0,4.41 -0.15,5.64 -0.27,0.84 -0.42,1.71 -0.45,2.58 0.12,1.14 0.99,2.34 0.57,3.6 -0.45,1.47 -1.26,3.39 -1.11,4.92 0.09,0.9 9.54,3.66 10.95,3.69 2.01,0.03 4.44,0.84 6.42,0.75 1.89,-0.09 1.74,-4.47 3.66,-3.09 1.86,1.29 4.95,2.91 7.29,3.21 1.71,0.21 1.92,0.72 2.22,2.61 0.3,1.89 1.71,3.57 1.98,5.85 0.33,2.91 2.91,4.44 3.24,7.41 0.36,3.3 1.17,10.11 5.7,9.63 2.52,-0.21 4.23,-2.13 6.63,-2.58 2.22,-0.39 3.9,2.22 5.49,3.3 -0.96,0.69 -1.05,1.65 -0.51,2.7 0.99,1.98 -0.6,3.06 -0.09,5.01 0.51,1.98 -0.63,5.61 -0.99,7.59 -0.33,1.86 -0.9,5.88 -0.57,7.89 l 1.83,12.45 c 0.15,1.08 -0.69,3.96 -2.25,4.29 -0.72,0.12 -2.85,3.15 -2.55,3.87 0.3,0.72 -3,1.26 -3.42,1.47 -0.78,0.39 -1.98,1.26 -1.74,2.1 0.33,1.11 -1.68,5.79 -3.36,4.35 -3.48,-3 -5.37,-0.45 -6.93,2.76 -0.99,-0.36 -2.28,-2.13 -3.42,-1.89 -1.44,0.27 -1.74,1.59 -3.15,-0.18 -0.99,-1.23 -2.25,0.51 -3.63,0.54 -1.29,0.03 -2.85,-0.42 -4.08,-0.75 -4.11,-1.08 -8.19,-2.64 -12.63,-2.19 -2.07,0.18 -3.3,1.65 -4.05,-0.81 -0.12,-0.45 1.38,-4.98 1.89,-5.28 4.41,-2.91 -0.09,-10.47 4.05,-12.51 1.92,-0.93 1.89,-5.46 2.94,-7.44 1.89,-3.51 -0.24,-5.19 -3.18,-7.44 -2.28,-1.71 -5.7,-1.68 -7.74,-3.42 -1.17,-0.99 -2.73,-1.38 -4.23,-1.65 -1.83,-0.33 -3.51,-1.56 -5.07,-2.46 -3.51,-1.98 -6.15,-3.99 -9.36,-6.57 -3.51,-2.82 -6.78,-2.16 -10.71,-3.72 -2.4,-0.96 -5.79,-1.35 -8.04,-3.66 -3.18,-3.33 -8.25,-6.42 -10.56,-8.49 -2.73,-2.46 -5.64,-5.67 -6.39,-7.71 -1.2,-3.45 -4.44,-3.9 -6.54,-6.81"
         style="fill:#343530;stroke-width:2px">
        <title
           id="title4677">Paraguay</title>
      </path>
      <path
         id="Guyana"
         d="m 265.36293,142 c 1.29,-2.43 3.54,-3.63 3.15,-7.41 -0.24,-2.55 0.93,-3.3 2.58,-4.17 0.33,-0.18 1.29,-1.71 2.55,-0.93 1.56,0.99 1.47,-0.06 2.85,-0.96 1.2,-0.78 3.54,-1.35 4.17,-2.46 0.54,-0.96 -0.27,-2.4 -1.62,-1.95 -3.27,1.08 -1.5,-2.04 -2.91,-3.72 -1.23,-1.53 0.27,-3.33 1.35,-4.53 1.29,-1.53 1.02,-1.44 2.94,-2.34 2.52,-1.2 3.93,-3.63 6.24,-4.71 3.12,-1.41 0.6,-2.49 -0.78,-4.92 2.1,2.34 5.25,3.9 7.74,5.91 -1.17,-1.71 -3.63,-2.1 -4.56,-4.05 3,1.26 6.18,3.15 8.43,5.49 1.77,1.86 4.08,5.52 6.33,6.75 2.46,1.35 3.12,5.76 2.25,8.07 -0.63,1.71 -1.62,2.91 -1.83,4.83 -0.18,1.65 -0.21,3.45 -1.26,4.86 3.45,-0.57 0.81,-8.55 6.18,-6.78 3.99,1.32 8.91,4.02 9.9,8.37 2.58,-2.19 4.44,2.34 4.83,4.11 0.63,3.03 -0.6,7.65 -2.7,10.05 3.48,0.93 0.45,3.27 -0.27,4.17 -0.75,0.84 -9.93,-1.83 -9.39,3.81 0.27,3.42 0.24,5.67 -0.27,9.03 -0.36,2.25 1.77,6.75 3.54,8.31 1.77,1.56 0.57,3.45 3.3,3.81 0.54,0.06 2.01,-0.57 2.37,-0.06 1.11,1.62 1.23,3.66 1.53,5.52 0.57,3.48 4.41,6.3 4.41,9.72 0,3.45 4.17,3.36 5.49,5.46 -4.47,2.67 -8.82,-2.73 -13.14,0.57 -0.69,0.54 -1.14,1.29 -1.77,1.92 -1.17,1.11 -2.67,0.63 -4.08,1.08 -2.58,0.84 -2.73,2.07 -5.82,2.1 -0.93,0 -1.47,0.69 -2.1,1.29 -0.42,0.06 -0.87,0.21 -1.29,0.48 0.09,0.51 0.15,1.02 0.18,1.53 -0.66,1.26 -4.47,1.83 -5.82,1.38 -0.93,-0.3 -0.3,-1.35 -1.68,-1.35 -1.08,0 -3.24,-0.75 -3.63,-1.8 -0.63,-1.68 -3.24,-4.32 -5.22,-4.56 0.15,-0.39 0.33,-0.81 0.48,-1.23 -1.83,0.09 -1.62,-1.44 -1.38,-2.61 0.36,-2.04 -0.15,-2.82 -1.47,-4.32 -2.16,-2.46 -2.04,-7.2 -1.38,-10.14 0.48,-2.25 2.28,-4.32 2.31,-6.72 0,-2.07 0.6,-1.89 1.86,-3.66 0.78,-1.08 2.46,-3 1.74,-4.32 -0.6,-1.02 -2.16,-2.49 -2.16,-3.75 0,-1.2 0.66,-2.34 -0.78,-2.94 -0.99,-0.39 -3.57,-0.45 -4.2,-1.44 -0.57,-0.9 1.44,-3.69 1.65,-4.77 0.3,-1.77 0.06,-3.87 -1.41,-5.16 -2.25,-1.92 -6,1.08 -8.73,-0.15 -3.27,-1.5 -7.11,-7.59 -8.61,-10.59"
         style="fill:#343530;stroke-width:2px">
        <title
           id="title4681">Guyana</title>
      </path>
      <path
         id="Uruguay"
         d="m 348.40293,679.21 c 1.05,-1.53 3.03,-2.91 2.22,-5.07 1.56,1.17 3.15,2.04 5.13,1.02 1.05,-0.54 1.08,-2.25 2.49,-2.46 2.52,-0.33 5.04,2.82 6.78,4.32 2.22,1.95 6.51,3.69 6.9,7.08 0.12,1.2 -0.03,3.27 1.59,2.82 1.23,-0.27 3.39,-1.47 2.61,-3.15 2.04,0.51 6.09,7.26 7.77,6.6 1.56,-0.54 1.86,0.66 3.12,1.5 1.68,1.05 3.36,1.05 4.86,2.64 1.08,1.14 1.98,2.52 3.33,3.45 1.74,1.14 3.84,1.35 5.49,2.76 2.94,2.61 3.84,5.94 7.53,7.83 4.17,2.1 2.16,3.36 0.18,6.54 -1.41,2.28 -0.42,8.37 1.8,9.84 1.41,0.93 -0.9,6.6 -1.86,8.28 -0.78,1.38 -3.51,7.35 -5.91,5.13 1.23,1.62 -1.5,2.49 -2.52,2.91 -2.91,1.2 -3.9,1.29 -7.05,0.57 -2.49,-0.51 -5.19,-1.83 -7.65,-0.54 -1.02,0.51 -2.16,1.23 -3.36,1.32 -1.83,0.12 -1.71,-1.11 -2.88,-1.77 -2.01,-1.11 -4.62,-0.69 -6.6,-1.92 -2.7,-1.68 -3.78,-3.42 -7.29,-3.24 -2.22,0.06 -4.02,1.05 -5.64,-0.75 -2.19,-2.49 -5.55,-4.14 -7.32,-7.05 -1.23,-1.98 -3.15,-10.59 -0.36,-11.4 2.88,-0.78 0.72,-4.26 -0.06,-5.82 -0.6,-1.08 -1.02,-2.31 -1.5,-3.51 -0.39,-0.96 0.87,-1.8 0.39,-3.18 -0.39,-1.2 -2.49,-4.71 -1.47,-5.91 2.22,-2.67 -0.63,-4.26 0.27,-6.06 0.63,-1.23 -0.15,-7.11 0.06,-7.29 2.04,-1.5 -0.6,-3.6 -1.05,-5.58"
         style="fill:#343530;stroke-width:2px">
        <title
           id="title4675">Uruguay</title>
      </path>
      <g
         id="Argentina">
        <title
           id="title5549">Argentina</title>
        <path
           d="m 193.84893,663.244 c 0.234,-1.209 1.638,-1.521 1.911,-2.652 0.351,-1.56 -0.507,-3.861 -0.429,-5.538 0.195,-4.758 2.847,-6.708 4.602,-10.764 1.131,-2.613 1.092,-5.304 1.716,-8.073 0.273,-1.326 0.585,-2.847 1.365,-4.017 0.741,-1.131 2.184,-0.195 3.393,-0.741 5.109,-2.34 -0.156,-5.421 -1.872,-8.073 -1.95,-3.003 1.482,-4.914 0.39,-7.878 -0.741,-2.067 -6.825,-12.87 -1.638,-13.065 -0.507,-1.326 -3.276,-4.446 -2.886,-5.772 0.936,-3.081 2.964,-5.265 5.889,-6.552 2.574,-1.131 6.786,-2.145 8.034,-5.031 1.248,-2.847 1.014,-6.708 1.521,-9.789 0.195,-1.209 -0.156,-4.641 -0.702,-5.85 -0.351,-0.819 -2.262,-0.273 -2.067,-1.131 1.053,0.078 4.095,-7.566 7.254,-9.126 3.432,-1.716 3.627,-2.067 4.056,-6.201 2.769,0.546 4.212,3.354 6.708,4.446 2.847,1.248 6.24,-0.312 9.243,0.078 7.137,1.053 6.825,6.474 10.491,11.505 0.234,-2.262 0.156,-4.407 1.092,-6.591 0.468,-1.131 1.287,-5.265 2.496,-5.772 0.897,-0.351 2.613,-0.156 3.666,-0.429 1.95,-0.468 4.212,-0.078 6.201,-0.078 1.17,0 3.783,-0.624 4.173,0.663 0.507,1.794 4.134,3.939 5.46,5.265 1.521,1.521 2.574,1.716 3.549,3.705 0.741,1.56 1.716,3.12 2.808,4.446 2.457,3.12 6.63,5.343 9.867,7.644 1.833,1.287 2.73,3.159 4.446,4.563 1.56,1.287 3.744,1.209 5.577,1.911 2.457,0.936 4.056,1.599 6.786,1.599 2.067,0 3.549,1.833 5.226,2.73 4.407,2.262 7.878,6.513 12.792,8.112 1.404,0.429 3.159,0.585 4.29,1.638 1.677,1.521 2.379,0.624 4.134,1.638 1.638,0.975 3.861,1.131 5.109,2.691 0.858,1.092 1.833,2.106 2.691,3.198 1.716,2.184 -1.521,4.524 -1.95,7.059 -0.624,3.783 -4.056,4.797 -3.276,9.282 0.702,4.095 -2.34,5.343 -3.198,8.814 -0.429,1.716 -1.053,1.092 -0.117,3.159 2.496,-0.975 5.187,-0.975 7.839,-0.468 4.641,0.858 9.009,3.588 13.533,2.106 1.404,-0.429 2.106,1.716 3.549,0.663 1.404,-0.975 2.925,1.287 4.056,1.716 0.78,-1.638 0.897,-3.978 3.198,-4.29 1.716,-0.234 2.613,1.716 4.134,1.521 2.379,-0.312 1.989,-3.159 2.574,-4.758 0.663,-1.794 4.563,-1.638 4.368,-2.691 -0.039,-0.312 2.223,-3.627 2.496,-3.588 1.677,0.273 1.365,-3.666 1.56,-5.07 0.39,-2.769 0.351,-5.811 -0.351,-8.541 -0.702,-2.769 1.014,-1.833 2.535,-0.858 0.312,-2.223 3.315,-1.989 4.875,-1.443 2.691,0.936 3.237,3.744 4.134,6.162 1.248,3.393 1.599,5.343 1.677,9.009 0.039,1.911 0.507,3.627 0.234,5.577 -0.156,0.936 -0.312,1.911 -0.468,2.886 -0.585,-0.195 -1.17,-0.156 -1.716,0.156 -2.028,1.131 -3.354,2.691 -5.577,3.588 -1.092,0.429 -4.797,1.716 -4.914,3.198 -0.195,2.223 -2.691,2.457 -4.212,3.432 -0.858,0.546 -1.014,1.794 -1.794,2.535 -1.092,1.092 -2.535,1.872 -3.549,3.12 1.014,0.312 1.443,1.209 0.975,2.184 -2.262,-2.301 -6.747,6.942 -8.034,8.736 -2.223,3.159 -2.808,9.594 -6.942,11.232 -1.833,0.741 -1.716,3.237 -2.613,4.719 -0.468,0.78 -1.209,1.209 -2.106,1.365 0.507,1.287 0,3.042 -0.936,3.9 -2.769,2.457 0.546,2.769 0.819,5.382 0.117,1.287 -0.663,1.521 -0.741,2.535 -0.039,1.209 0.078,1.482 0.195,2.691 0.117,1.17 0,2.262 -0.507,3.354 -1.092,2.184 0.975,1.014 0.78,3.12 -0.234,2.652 -1.755,3.159 -1.248,6.045 0.429,2.457 1.911,3.393 1.092,5.928 -0.702,2.262 0.819,5.07 1.95,6.942 1.989,3.276 -2.457,2.067 -2.301,4.017 0.195,2.496 -1.248,5.031 -0.078,7.566 0.663,1.404 6.006,9.048 1.677,8.853 1.95,1.56 2.145,3.627 4.485,5.07 2.535,1.56 5.07,2.769 7.8,4.056 4.446,2.028 10.686,5.499 8.268,10.959 -1.716,3.9 3.51,11.856 8.229,9.906 1.833,-0.741 2.652,4.797 3.042,5.772 1.17,2.964 -0.819,6.318 -2.067,9.009 -1.131,2.457 -4.017,5.928 -4.095,8.658 -0.078,2.886 0.156,3.705 -2.457,5.616 -4.836,3.432 -10.413,5.187 -16.185,6.357 -6.942,1.365 -13.728,3.432 -20.904,3.744 -2.73,0.117 -5.07,0.039 -7.761,-0.156 -3.081,-0.273 -5.187,-2.223 -8.151,-2.613 0.39,0.78 0.936,1.443 1.638,2.028 0.741,0.663 -0.078,2.184 0.351,3.042 0.234,0.468 5.85,4.602 2.301,3.237 1.638,1.17 2.418,2.028 2.769,4.056 0.234,1.443 0.468,3.9 -1.794,2.652 0.312,1.482 0.741,2.964 0.702,4.524 -0.039,1.209 -1.287,2.301 -0.39,3.393 0.663,0.78 1.599,1.365 2.379,2.067 1.17,1.053 0.546,2.769 2.223,1.872 -1.014,6.006 -7.176,6.942 -12.285,7.371 -6.747,0.585 -12.324,-3.939 -18.993,-4.914 2.72999,-0.507 -0.117,-1.521 -1.014,-1.053 -1.131,0.585 -1.833,2.067 -1.911,3.315 -0.117,3.588 4.29,6.201 4.953,9.789 0.54599,2.847 0.58499,6.435 3.822,7.683 1.638,0.624 6.162,0.975 4.875,3.744 0.663,0.156 7.02,0.858 6.591,-0.741 -0.312,-1.326 -3.276,-1.365 -4.251,-1.911 2.106,0.312 3.237,-1.833 5.187,-1.95 1.989,-0.117 4.095,2.652 4.446,4.407 0.312,1.599 2.34,3.978 1.209,5.616 -0.78,1.131 -3.666,1.482 -4.914,1.326 -2.067,-0.234 -1.716,-2.574 -2.769,-3.588 -1.677,-1.638 -3.978,-2.34 -6.045,-0.936 -5.46,3.627 3.549,6.591 6.708,5.811 -0.234,1.716 -2.106,2.262 -3.471,2.808 -2.73,1.092 -2.613,2.34 -3.666,4.758 -1.092,2.496 -1.248,3.354 0.468,5.733 0.585,0.78 1.443,1.794 1.56,2.847 -0.195,0.702 -0.195,1.404 -0.039,2.145 0.702,0.663 1.092,1.482 1.131,2.457 -0.078,0.429 0.117,2.106 -0.507,2.301 -0.936,0.234 -2.262,0.663 -2.418,1.833 -0.195,1.989 2.847,2.34 2.535,3.9 -0.351,1.716 -12.636,-0.702 -10.023,3.666 -5.304,-1.092 -6.708,5.187 -7.449,9.048 -1.209,6.435 3.003,8.97 7.87799,12.285 2.37901,1.599 4.44601,3.744 7.13701,4.914 3.393,1.482 7.566,-0.507 10.803,1.365 4.524,2.652 5.226,11.583 -1.833,10.686 1.287,0.507 2.223,-0.624 3.471,-0.702 1.833,-0.117 2.574,1.092 3.705,2.301 -1.053,0.117 -1.404,0.741 -0.858,1.677 -2.028,-0.39 -6.123,4.797 -7.41,6.045 -1.638,1.599 -2.925,3.198 -4.134,5.187 -0.819,1.326 -1.599,2.106 -1.521,3.783 0.039,1.287 0.156,2.535 -0.975,3.51 0.975,0.156 1.794,-0.351 1.989,-1.365 0.117,3.627 4.173,9.984 -1.326,11.739 -4.017,1.248 -5.343,-4.836 -8.81401,-5.46 0.858,0.312 3.23701,2.106 2.45701,3.276 -0.546,0.858 -2.92501,0.117 -3.822,0.819 3.354,-1.365 4.797,0.819 7.8,1.482 -0.351,2.223 -3.939,2.106 -4.758,4.641 -1.09201,3.354 1.248,5.538 -0.66301,8.97 2.49601,-3.081 6.12301,3.666 7.02001,5.46 1.365,2.691 -4.29,1.092 -5.694,2.262 1.443,-0.468 4.914,0.897 5.538,0.507 2.028,-1.17 3.588,1.521 5.148,2.73 2.964,2.34 6.201,4.056 7.566,7.527 -0.702,-1.209 -2.379,-1.17 -3.627,-1.287 -2.184,-0.195 -4.212,-1.404 -6.318,-2.028 -5.304,-1.521 -10.99801,-2.184 -16.497,-2.184 h -7.293 c -2.028,0 -6.357,0.819 -8.112,-0.234 -2.73,-1.677 -5.07,-5.538 -8.658,-5.967 1.092,-1.638 0.078,-4.329 -1.326,-5.343 -1.872,-1.365 -0.39,-3.159 -1.443,-4.836 -0.624,-1.014 -2.574,-3.705 -4.095,-3.003 -1.209,0.546 -2.262,-0.195 -3.471,0.078 -0.897,0.195 -1.365,1.287 -2.106,1.716 -1.599,0.897 -3.9,-3.354 -4.407,-4.368 -1.014,-1.989 -5.07,-3.393 -5.421,-5.46 -0.156,-1.053 -0.741,-1.092 -1.209,-1.989 -0.351,-0.702 -0.039,-1.599 -0.351,-2.379 -0.39,-1.053 -1.677,-1.443 -2.067,-2.574 -0.429,-1.209 -0.039,-2.535 -0.234,-3.783 2.028,0.312 2.184,-0.858 2.73,-2.457 0.273,-0.897 -0.234,-1.638 0.468,-2.457 0.624,-0.702 1.911,-0.195 2.613,-0.975 1.326,-1.521 -0.078,-4.017 -1.092,-5.382 -1.17,-1.56 1.911,-1.677 2.106,-2.925 0.156,-1.404 -1.872,-3.198 -2.886,-3.9 -2.028,-1.443 -2.34,-2.34 -2.34,-4.836 0,-1.677 0.39,-7.683 3.393,-7.215 -0.585,-1.326 -2.262,-1.443 -2.184,-2.886 0.039,-0.897 -0.858,-1.638 -0.468,-2.574 0.273,-0.663 1.014,-0.975 1.326,-1.638 1.326,-2.691 -3.276,-6.903 -5.187,-8.307 1.677,-0.078 2.652,-3.237 0.819,-3.744 -1.287,-0.351 -3.432,-3.354 -2.028,-4.641 1.17,-1.092 1.56,-0.351 2.379,-2.106 0.702,-1.482 0.936,-1.521 -0.39,-2.808 -1.17,-1.131 -2.496,-2.184 -3.822,-3.12 -1.872,-1.326 -4.602,0.039 -6.318,-1.794 -1.443,-1.599 8.073,-0.897 8.853,-1.989 -0.39,0.585 0.039,-3.12 0.234,-2.574 -1.443,-4.017 -8.034,0.078 -9.633,-3.861 -0.39,-0.624 -0.78,-1.287 -1.17,-1.95 -0.273,-1.053 1.365,-1.989 0.624,-3.003 -0.897,-1.248 -3.159,-1.989 -1.872,-3.432 1.56,-1.755 -6.24,-3.159 -3.393,-5.694 1.482,-1.326 -0.39,-2.418 -1.755,-2.652 -2.613,-0.429 -3.627,-1.404 -4.485,-3.939 -0.624,-1.911 -0.663,-4.212 -1.365,-6.045 -0.507,-1.365 -2.613,-2.535 -0.585,-3.939 1.209,-0.858 3.393,-0.156 1.833,-2.223 -1.326,-1.755 -4.212,-4.251 -3.978,-6.669 0.429,-4.173 -3.9,-8.073 -4.602,-11.895 -0.273,-1.521 -0.156,-3.588 0.507,-4.953 1.092,-2.184 -2.028,-2.73 -2.379,-4.602 2.925,0.975 1.014,-3.237 0.195,-4.212 -1.677,-1.95 -1.209,-2.925 1.131,-3.003 -1.482,-1.443 -0.702,-5.694 -1.404,-7.722 -1.053,-3.081 2.028,-3.705 3.939,-5.421 2.067,-1.833 -2.418,-4.836 -3.042,-7.137 -0.78,-2.886 -5.304,-6.435 -4.836,-9.282 0.273,-1.911 -1.599,-6.591 -2.535,-8.424 -0.936,-1.95 -1.443,-6.318 0.078,-8.034 0.819,-0.897 1.599,0.039 2.106,-1.053 0.351,-0.819 0.273,-2.067 0.936,-2.769 0.507,-0.546 1.833,-0.897 1.911,-1.716 0.156,-1.989 -0.546,-4.095 -1.326,-5.928 -0.624,-1.521 -1.443,-2.964 -2.184,-4.446 -0.156,-0.351 -1.677,-1.326 -1.677,-1.521 0,-1.326 1.638,-0.741 1.833,-2.262 0.156,-1.482 -0.117,-3.003 -0.273,-4.485 -0.117,-1.443 0.195,-8.19 2.418,-7.8 2.106,0.351 -0.858,-4.953 -1.053,-5.382 -0.819,-1.989 0.195,-8.814 -2.106,-9.594 -1.326,-0.429 -0.507,1.716 -2.34,-0.507 -1.326,-1.638 -0.936,-2.457 -0.663,-4.29 0.195,-1.443 -0.819,-1.95 -1.794,-2.691 -1.248,-0.897 -0.858,-1.794 -1.248,-3.12 -0.897,-2.847 -3.783,-4.641 -4.641,-7.566 2.73,1.248 -0.273,-2.457 -1.326,-3.003 -2.496,-1.248 -3.354,-5.382 -3.471,-7.878 -0.117,-3.003 2.184,-1.911 1.521,-5.148 -0.468,-2.34 1.911,-6.708 0.195,-8.619 4.173,2.769 2.574,-4.368 2.028,-5.928 -0.819,-2.223 -4.719,-8.151 -3.393,-10.296"
           style="fill:#343530;stroke-width:2px"/>
        <path
           id="path4520"
           d="m 325.84293,1002.1 c 2.496,2.223 5.616,3.783 7.527,6.63 -1.716,-3.12 -5.655,2.34 0.858,2.379 2.418,0 3.198,2.73 4.758,4.134 1.911,1.677 4.719,2.106 6.552,3.705 4.758,4.212 11.661,6.162 17.472,8.814 2.613,1.17 6.435,2.652 9.36,2.574 1.404,-0.039 2.847,-0.312 4.29,-0.234 2.028,0.078 1.56,2.184 1.014,3.861 -1.599,-0.858 -3.51,0.624 -5.46,-0.078 -2.067,-0.78 -4.992,1.872 -7.605,1.287 -2.925,-0.624 -5.499,-1.326 -8.58,-1.404 -3.393,-0.078 -7.8,0.039 -10.998,-1.248 -2.067,-0.819 -3.315,1.248 -5.07,-1.326 -1.599,-2.379 -2.535,-5.343 -3.822,-7.917 -3.51,-6.942 -7.332,-13.962 -10.296,-21.177"
           style="fill:#343530;stroke-width:2px" />
      </g>
      <g
         id="Chile">
        <title
           id="title5536">Chile</title>
        <path
           id="path6428"
           d="m 361.9221,1039 c -1.95,-2.58 -12.36,-4.83 -14.61,-1.47 1.89,-0.93 2.25,1.56 3.3,2.49 0.87,0.78 6.48,0.75 3.51,1.05 0.84,0.09 1.74,0.12 2.61,0.09 0.69,-0.15 -0.15,-0.81 0.15,-1.08 0.99,-0.84 1.98,1.41 2.55,1.65 1.59,0.72 2.97,-1.44 2.46,-2.79"
           style="fill:#78787d;stroke-width:1px" />
        <path
           id="path6376"
           d="m 292.0221,1027 c 1.29,-0.9 2.88,-1.65 4.44,-1.95 -1.32,-0.45 -1.56,-2.67 0.24,-1.83 -0.45,-2.55 -3.09,-1.29 -4.08,-2.85 -0.72,-1.14 -2.91,-2.25 -2.7,-0.06 -0.54,-1.02 -2.43,-2.88 -2.58,-0.48 -0.69,-0.96 -2.94,-3.96 -4.44,-2.82 0.21,0.39 0.48,0.81 0.72,1.23 -0.84,-0.15 -1.71,-0.15 -2.58,0 1.68,0.84 3.15,1.92 5.07,2.31 -1.89,0.12 -5.01,-2.61 -6.3,-0.09 1.02,-0.24 1.65,0.15 1.59,1.23 3.21,-1.41 2.28,0.63 3.54,2.52 0.63,0.96 1.89,1.35 2.52,0.18 0.84,-1.62 2.76,-1.68 4.44,-0.99 -0.42,0.39 -0.81,0.81 -1.23,1.23 0.42,0.33 0.9,0.66 1.35,0.99 -0.81,0.36 -1.68,0.66 -2.58,0.84 0.9,0 1.77,0.18 2.58,0.6"
           style="fill:#78787d;stroke-width:1px" />
        <path
           id="path6420"
           d="m 331.9221,1039 c 0.57,1.17 3.87,1.59 4.95,1.35 -1.14,2.28 4.62,3.78 6.06,2.94 -0.84,-0.63 -1.71,-1.26 -2.61,-1.83 -3.3,-2.19 2.4,-1.02 -1.35,-2.19 1.53,-0.51 3.51,1.41 5.22,1.5 1.62,0.09 2.76,1.98 2.07,2.88 1.35,-0.87 5.19,0.12 6.72,0.48 1.77,0.42 2.07,2.64 4.29,2.07 -1.38,-1.59 -2.49,-2.97 -4.56,-3.69 -1.56,-0.54 -4.08,-0.21 -5.19,-1.71 1.32,1.14 3.57,0.66 5.07,0.21 -3.09,-2.1 -7.74,-0.33 -10.41,-3.3 2.43,0.93 3.24,0.6 5.64,0.63 1.86,0.03 0.78,-1.8 -0.48,-2.04 -1.89,-0.3 -3.9,0.24 -5.7,0.81 -1.02,0.3 -6.75,-0.6 -4.89,1.92 -0.78,-2.1 -3.6,-1.32 -4.83,-0.12"
           style="fill:#78787d;stroke-width:1px" />
        <path
           id="path6346"
           d="m 278.8221,1015 c 1.08,0.3 2.19,0.33 3.33,0.12 -1.89,-0.48 -3.27,-2.04 -5.19,-2.58 3.87,3.75 -5.28,-3.66 -1.23,0.09 -2.67,-1.98 -5.37,-2.04 -8.43,-2.82 -2.37,-0.6 -4.35,-3.21 -7.02,-2.55 3.21,1.44 5.46,3.48 8.88,4.5 1.68,0.51 3.51,0.21 5.19,0.87 1.38,0.54 2.76,2.97 4.5,2.31"
           style="fill:#78787d;stroke-width:1px" />
        <path
           id="path6130"
           d="m 205.0221,850 c -1.2,-0.93 -1.53,-0.24 -2.13,0.69 -0.72,1.14 -3.18,-1.32 -4.17,-1.32 2.13,2.16 0.18,5.07 1.29,6.87 1.83,2.97 1.53,7.35 3,10.32 0.63,1.26 -0.75,2.04 -0.18,3.45 0.54,1.35 2.25,1.74 3.54,2.07 1.08,0.27 2.22,0.6 3.36,0.75 2.34,0.27 0.33,-3.12 0.21,-3.78 3.6,-0.42 0,-2.88 -1.11,-3.93 0.81,0.12 1.65,0.12 2.46,0 -0.42,-0.81 -7.17,-5.16 -3.48,-5.16 -2.79,-1.62 0.12,-2.58 1.47,-3.69 -1.77,-1.74 -3.51,-3.87 -4.32,-6.27"
           style="fill:#78787d;stroke-width:1px" />
        <path
           id="path6228"
           d="m 229.6221,892 c -0.27,-0.48 -0.6,-0.93 -0.96,-1.35 1.83,-0.48 1.44,-2.31 -0.27,-2.49 -0.54,0.03 -1.08,-0.06 -1.59,-0.33 -1.47,-1.17 -1.17,0.54 -3.06,-0.48 -0.36,1.02 0.24,1.77 1.23,2.07 -0.78,0.6 -1.71,0.87 -2.7,0.84 0.33,1.23 1.2,2.94 2.82,2.58 -2.79,0.48 0.06,1.65 1.05,1.8 1.56,0.18 2.7,-1.65 3.51,-2.67"
           style="fill:#78787d;stroke-width:1px" />
        <path
           d="m 164.44293,501.4 c 2.7,-1.53 5.97,-0.15 7.05,-3.93 0.48,-1.74 -1.89,-4.29 -0.51,-5.79 0.3,-0.21 0.66,-0.24 1.05,-0.15 1.08,0 2.07,-1.8 2.67,-2.52 0,2.13 2.28,3.06 2.88,4.98 0.54,1.83 1.71,2.52 3.54,2.88 -1.68,1.59 0.78,6.12 1.38,7.83 1.53,4.41 2.4,6.99 6.21,10.05 3.42,2.73 1.89,3.63 0.42,7.11 -0.24,0.6 2.49,2.34 2.49,3.51 0,1.44 -2.28,1.59 -3.21,2.13 1.83,1.68 0.33,3.54 1.47,5.4 0.57,0.93 2.01,0.66 2.58,1.59 0.78,1.23 -0.12,1.35 0,2.58 0.42,3.72 5.58,5.52 6,9.84 0.51,5.22 4.02,9.6 5.49,14.52 1.11,3.75 1.11,8.55 6.51,6.84 5.58,-1.74 5.91,1.68 5.34,6.24 -0.42,3.48 -0.15,10.05 -3.15,12.63 -6.36,1.83 -10.8,4.65 -12.24,8.7 -0.51,1.47 2.13,4.35 2.76,5.94 -3.9,0.12 -1.23,6.3 -0.39,8.1 0.72,1.56 1.83,3.81 2.4,5.43 0.87,2.52 -1.47,3.06 -1.32,5.37 0.21,3.18 5.55,5.64 4.77,8.34 -0.45,1.62 -3.27,3.06 -4.62,2.4 -1.65,-0.81 -2.37,3.87 -2.43,4.68 -0.33,4.26 -1.89,9.63 -5.22,14.28 -2.46,3.42 0.72,6 -0.6,9.78 -0.66,1.86 -2.73,2.01 -2.04,4.41 0.57,1.98 2.01,3.63 2.58,5.61 0.33,1.14 0.72,1.98 1.05,3.15 0.3,1.02 0.9,1.86 1.2,2.82 0.66,2.07 -1.5,5.22 -3.48,2.79 1.44,1.62 0.09,4.89 0.09,6.72 0,1.29 0.78,3.21 -0.45,4.32 -0.93,0.81 -0.99,0.6 -1.11,2.28 -0.15,2.85 1.98,5.76 3.36,8.13 0.66,1.14 1.38,0.75 2.13,1.83 0.66,0.93 0.54,2.31 -0.72,1.74 0.93,3.24 4.23,4.92 4.83,8.25 0.21,1.32 0.87,2.28 2.28,2.97 1.83,0.9 -0.06,2.94 0.3,4.38 0.96,3.81 4.98,0.51 4.92,4.86 -0.03,3.45 -0.45,6.24 1.41,9.24 0.27,0.45 1.83,3.06 0.06,3.18 -1.23,0.06 -1.35,0.75 -1.59,1.62 -0.39,1.41 -0.63,2.82 -0.87,4.23 -0.27,1.71 0.3,3.27 0.48,5.01 0.24,2.37 -1.02,2.88 -1.71,2.67 -1.38,-0.45 0.33,0.93 1.02,1.92 2.28,3.24 3.51,6.66 3.93,10.23 0.12,1.14 -0.03,1.83 -1.14,1.95 -1.02,0.09 -1.41,1.71 -1.44,2.49 -0.09,2.79 -2.52,0.21 -3.24,3.63 -0.3,1.5 -0.18,2.79 0.33,4.32 0.48,1.44 0.54,2.85 1.35,4.2 2.07,3.6 1.68,5.04 1.98,7.41 0.36,2.79 2.88,4.29 4.02,6.72 0.72,1.59 1.41,3.06 2.58,4.47 0.54,0.66 1.77,2.4 1.29,3.48 -0.99,2.31 -4.83,2.16 -4.05,5.43 0.48,2.04 -0.45,6.93 0.99,8.37 -1.71,0.51 -2.91,0.99 -1.41,1.32 0.6,0.12 4.14,7.05 0.54,5.91 0.33,1.89 1.71,1.95 2.19,3.33 0.36,1.11 -0.36,2.73 -0.57,3.78 -0.69,3.24 0.54,5.46 2.82,7.74 1.8,1.8 2.19,5.28 2.37,8.19 0.15,2.52 2.97,4.08 4.32,6.18 -0.99,0.93 -2.97,0.48 -3.33,2.1 -0.3,1.38 1.71,3.63 1.92,5.31 0.21,1.89 1.17,5.79 2.85,6.93 1.5,1.02 4.5,0.3 4.62,2.85 0.09,2.19 -3.21,0.57 0.09,3.27 0.66,0.54 1.65,1.29 2.25,1.95 1.35,1.47 -0.18,0.99 0.21,2.01 0.39,0.96 1.2,1.35 1.8,2.25 0.87,1.38 -0.57,2.28 0.12,3.54 0.87,1.59 0.96,2.91 2.73,3.24 2.4,0.45 5.34,-0.45 7.17,1.44 0.48,0.48 0.15,3.39 -0.27,3.81 -1.74,1.56 -4.74,0.81 -6.72,0.9 -4.29,0.15 0.3,1.8 2.22,1.95 4.32,0.33 10.41,4.68 5.58,8.52 -0.48,0.39 -1.29,-0.09 -1.71,0.51 -0.69,1.05 1.32,2.19 1.56,3.18 0.21,0.87 1.17,1.05 1.68,1.71 0.81,1.08 -0.54,3.24 -1.77,3.3 1.74,1.26 6.63,5.67 5.22,8.19 -0.66,1.17 -1.65,1.44 -0.84,3.09 0.21,0.45 0,1.92 0.54,2.16 0.9,0.39 1.2,1.08 1.62,2.04 -1.89,-0.27 -3.45,4.68 -3.36,6.09 0.09,1.62 -0.36,3.15 0.69,4.56 0.93,1.2 5.4,3.57 4.92,5.37 -0.27,1.08 -1.83,1.2 -2.16,2.22 -0.51,1.71 2.67,3.66 1.17,6.03 -0.75,1.23 -2.34,0.48 -2.88,1.86 -0.66,1.74 -0.12,4.56 -3.36,4.05 0.24,1.71 -0.3,4.05 1.23,5.04 2.01,1.23 2.97,3.84 3.09,5.28 0.18,2.01 3.45,3.45 4.56,5.04 1.08,1.53 1.8,3.75 3.69,4.59 1.26,0.57 1.95,-0.3 2.91,-0.99 1.11,-0.78 2.01,-0.27 3.27,-0.24 2.67,0 3.15,0.27 4.86,2.85 1.17,1.8 -0.42,3.99 1.26,4.98 1.47,0.84 2.64,4.11 1.65,5.55 2.55,0.3 5.97,3.18 7.47,5.1 1.71,2.22 9.45,0.84 11.64,0.66 9.6,-0.87 19.35,1.44 29.94,5.04 -2.52,0.03 -4.83,-1.02 -7.29,-1.47 -4.47,-0.81 -2.19,1.59 -3.57,3.45 -1.2,1.62 -3.66,0.06 -5.1,1.65 -1.71,1.89 -4.86,1.53 -7.14,2.25 1.5,1.95 1.62,4.44 2.13,6.75 0.48,2.25 1.89,3.54 2.97,5.46 2.85,5.16 -3.93,3.39 -6.54,2.88 -3.09,-0.63 -10.17,-2.58 -11.37,-5.97 -1.2,-3.42 5.46,-1.44 2.64,0.78 1.59,0.03 1.08,-1.89 1.71,-2.7 0.42,-0.6 3.93,2.46 2.22,4.08 2.7,-0.9 -2.22,-5.07 2.85,-5.97 0.87,-0.15 1.05,-2.52 1.05,-3.15 0,-1.74 -2.94,-1.38 -3.93,-2.31 0.06,1.8 -2.55,3.48 -3.84,4.41 -2.13,1.56 -4.08,-0.84 -6.18,0.48 1.53,-0.27 2.73,1.02 3.81,1.83 -0.87,0.18 -1.74,0.09 -2.58,-0.24 0.33,0.93 0.21,1.77 -0.36,2.58 1.56,0.18 2.76,1.29 3.84,2.34 -3.72,0.93 -10.08,-3.09 -12.75,-5.4 1.83,0.87 4.44,0.78 6.42,0.72 -0.3,-1.65 -4.23,-1.77 -4.38,-4.98 -0.06,-1.92 3.3,-2.7 2.64,-0.27 2.16,-0.63 2.49,-0.42 3.99,-2.22 1.53,-1.83 5.58,0.87 7.74,-0.57 -1.35,-1.77 -10.44,-3.03 -10.89,0 -1.2,-0.42 -2.07,-0.93 -0.12,-1.71 -1.14,0.03 -5.85,0.09 -4.83,2.34 0.81,-0.78 1.68,-0.81 2.58,-0.09 -0.33,0.93 -1.11,1.65 -2.1,1.95 0.63,1.05 2.61,3.66 0.09,3.9 -1.56,0.12 -5.01,-1.8 -1.95,-2.67 -1.53,0.45 -2.73,-0.78 -3.84,-1.59 0.84,0.12 1.71,0.12 2.58,0 -0.45,-0.21 -0.93,-0.45 -1.35,-0.72 1.68,-1.02 -0.18,-3.03 2.1,-2.46 -1.8,-0.66 -1.8,-0.93 0,-0.84 -0.84,-0.27 -1.71,-0.27 -2.58,0 0.9,0.63 1.11,1.65 0.48,2.58 -0.42,-0.84 -1.23,-1.5 -2.22,-1.59 0.03,1.02 -0.54,1.89 -1.47,2.34 0.51,-1.17 0.15,-1.62 -1.11,-1.35 2.79,-2.28 -3.96,-6.48 -4.47,-8.61 1.17,1.32 3.24,2.61 5.1,2.52 0.84,-0.03 4.11,-2.94 3.21,0.42 1.29,-0.75 3.78,0.54 1.83,-1.71 0.66,2.88 -1.11,-0.9 -1.11,-2.34 1.44,0.12 2.73,1.59 3.78,2.46 1.95,1.56 0.72,2.97 -0.45,4.53 1.2,-0.78 2.55,-0.21 3.84,-0.09 -1.68,-0.84 -0.39,-2.85 -1.92,-3.75 -0.9,-0.54 -4.02,-2.88 -1.26,-3.24 -1.65,-1.29 -2.4,-3.36 -4.29,-4.5 -1.98,-1.17 -4.47,-1.23 -6.24,-2.88 -0.3,0.36 -0.57,0.75 -0.72,1.23 1.56,-0.15 9.18,1.8 8.97,3.93 -0.15,1.71 -7.98,-2.31 -9.09,-2.19 0.78,1.05 1.95,0.84 2.91,1.59 1.02,0.81 0.36,2.31 2.01,2.31 -0.63,0.69 -1.05,1.53 -1.23,2.46 -1.14,-1.68 -2.01,-3.75 -3.69,-5.04 1.32,1.68 3.3,3.96 3.21,6.27 -1.89,-1.65 -4.41,-2.34 -5.43,-4.92 0.84,0.63 1.71,1.23 2.58,1.83 -0.66,-1.17 -2.73,-1.92 -2.34,-3.57 -0.78,0 -1.68,0.78 -2.46,0.6 -0.78,-0.18 -0.6,-1.35 -1.62,-1.53 -1.05,-0.18 -2.4,-2.82 -2.58,-3.75 2.16,0.51 3.48,2.4 5.19,3.69 -1.68,-1.89 -2.73,-4.32 -4.68,-6.03 2.67,2.4 0.63,-0.6 -0.6,-0.87 -0.12,0.39 -0.24,0.81 -0.36,1.23 -1.02,-0.24 -1.92,-0.75 -2.7,-1.47 1.74,2.79 -2.37,-1.8 -3.03,-2.37 -0.78,-0.69 1.17,-1.05 1.44,-1.08 0.54,-0.09 1.11,-0.09 1.65,-0.06 2.13,0.15 -2.04,-2.43 1.14,-0.6 -1.11,-0.93 -1.02,-2.85 0.72,-2.82 -1.44,0.03 -3.03,-1.35 -1.95,-2.82 -1.38,1.2 -0.09,3.81 -0.99,5.28 -1.05,1.71 -5.4,-4.17 -6.3,-4.68 0.93,0.3 1.8,0.75 2.58,1.35 -2.58,-2.31 0.21,-0.6 1.47,-0.72 -1.59,-1.41 -5.16,-1.29 -5.82,-3.3 0,2.85 -3.21,-1.35 -4.95,-1.47 1.74,-3.45 7.38,1.86 10.17,1.47 -2.46,-0.54 -7.53,-2.01 -7.92,-5.04 2.01,-0.09 3.45,1.98 5.55,1.23 -1.32,0.06 -1.62,-0.9 -1.11,-1.95 -1.2,2.94 -7.2,-1.56 -2.97,-2.34 -0.93,0.24 -4.35,-0.81 -2.4,-1.95 2.55,-1.47 4.5,1.23 6.75,1.95 -1.62,-0.96 -3.42,-2.04 -4.8,-2.94 -0.72,-0.45 -1.92,-0.54 -1.83,-1.71 0.06,-1.11 1.26,-1.35 2.1,-0.87 -1.32,-0.63 -3.72,-5.55 -0.99,-4.17 -0.9,-0.6 -1.77,-0.51 -2.58,0.21 0.63,0.6 0.72,5.58 0.24,6.39 -1.89,-1.83 -4.89,-5.13 -4.74,-7.92 0.03,-0.63 -2.25,-1.83 -1.17,-2.64 0.78,-0.6 2.67,-0.66 3.6,-0.33 -0.39,-0.27 -6.75,-0.96 -4.44,-3.09 0.96,-0.87 3.42,0.39 4.44,0.75 -1.02,-0.54 -1.44,-1.56 -0.72,-2.58 -0.84,0.09 -5.73,-0.3 -2.61,-1.35 -3.03,1.38 -4.68,-4.23 -7.68,-3.3 -0.45,-3.3 4.47,0.54 5.31,1.35 -0.54,-0.84 -1.17,-1.65 -1.83,-2.46 2.31,-0.33 4.05,0.78 6.15,1.44 0.87,0.27 1.86,0 2.67,0.54 1.11,0.81 2.55,0.36 3.51,1.17 0.42,-0.75 0.33,-1.44 -0.24,-2.07 -0.51,2.7 -4.65,-0.99 -4.83,-2.46 1.56,1.23 3.39,0.84 5.19,1.35 -0.66,-0.24 -1.35,-0.36 -2.07,-0.33 -1.41,-0.12 -2.07,-1.62 -3.12,-2.34 -0.93,-0.66 -1.8,-0.33 -2.58,-1.35 -0.6,-0.78 -0.18,-1.83 -0.96,-2.58 1.08,1.44 1.44,4.86 -1.38,4.2 -1.17,-0.27 -3,-0.3 -4.77,-0.48 -1.77,-0.15 -3.48,-0.48 -4.38,-1.38 1.05,-0.27 1.44,-1.05 0.72,-1.95 2.46,-0.63 3.51,2.22 5.7,2.7 -1.92,-0.36 -0.75,-2.31 0.72,-1.71 -0.27,-2.22 -1.56,-0.06 -2.94,-0.78 -0.93,-0.48 -1.38,-1.77 -2.61,-1.77 -1.26,0 0.51,-5.76 2.58,-2.46 -0.36,-0.99 0,-1.62 1.11,-1.59 -0.12,-0.6 -0.39,-1.17 -0.72,-1.71 -2.19,1.86 0.69,0.51 -3.66,-2.19 -2.31,-1.5 -2.85,-2.28 -5.61,-0.75 0.99,-0.3 1.98,0.03 2.58,0.87 -2.04,-0.48 -4.17,-0.87 -6.06,-1.89 -3.3,-1.77 -0.96,-2.58 -2.19,-4.74 -1.2,2.34 -6.03,2.67 -6.18,4.8 2.25,-3.57 5.85,5.43 0.78,1.44 -3.33,-2.58 -0.33,-9.39 3.66,-7.74 -1.17,-0.15 -1.56,-0.96 -0.84,-1.95 2.04,1.59 0.99,-2.16 3.06,0 -1.65,-1.23 0.57,-2.79 -1.35,-3.93 1.11,4.71 -4.8,0.81 -1.23,0.96 -1.26,-0.15 -2.73,-0.51 -3.09,-1.95 1.65,0.6 3.21,-1.02 5.01,-0.69 1.56,0.27 1.86,1.92 3.39,2.04 -2.22,-1.5 0.15,-2.13 1.41,-2.28 1.5,-0.18 1.05,1.68 2.67,1.8 -0.87,1.2 1.02,3.42 0.48,0.84 3.69,1.65 -1.83,4.05 -3.96,3.06 1.41,0.84 6,1.56 7.68,1.47 -0.93,-0.42 -1.53,-1.29 -1.47,-2.34 1.05,0.69 2.34,1.02 2.82,2.34 0.51,1.41 -0.99,2.61 -0.24,4.02 2.43,-0.3 3.15,-6.18 2.73,-7.98 -0.39,1.32 -0.72,2.7 -1.59,3.81 0.18,-2.61 -3.42,-9.21 1.71,-9.09 -1.44,-0.78 -2.94,0.3 -3.69,1.47 -0.24,-1.17 -1.08,-2.7 -0.72,-3.93 0.39,-1.41 1.98,-1.41 2.46,-2.82 0.9,1.11 2.28,1.53 3.51,2.16 1.59,0.81 2.01,-0.9 0.69,-0.78 -1.05,0.09 -1.71,-0.39 -2.58,-0.93 -1.56,-0.96 -3.33,-0.09 -4.86,-0.93 2.7,-2.01 -3.75,-4.08 1.32,-4.65 3.63,-0.39 5.25,-5.52 3.39,-8.37 -1.26,2.1 -9.15,-2.07 -8.97,-4.11 0.33,-0.42 0.75,-0.42 1.29,-0.06 -2.28,-2.37 2.31,-3.93 0.84,-5.91 -0.39,1.47 -1.77,1.5 -1.83,-0.06 -0.06,-2.01 -1.38,-1.23 -2.31,-3.12 -0.78,-1.62 0.06,-2.28 0.42,-3.69 0.18,-0.81 -1.44,-3.21 0.99,-2.64 0,-1.47 -0.96,-1.68 -1.8,-2.67 -0.66,-0.81 -0.42,-1.89 -0.96,-2.76 -1.95,-3.21 0.48,-1.32 2.49,-1.8 -1.92,-0.24 -3.93,-2.37 -4.44,-4.17 2.76,-0.96 4.11,1.35 5.43,3.3 -0.27,-2.55 -2.07,-5.16 -3.33,-7.35 -2.49,2.34 -6.12,-1.05 -3.03,-3.09 1.95,-1.26 4.62,-2.19 2.07,-4.65 1.53,6.75 -3.75,1.83 -6.81,1.08 -2.31,-0.54 -0.69,3.09 -1.98,3.93 -1.89,1.23 -9.06,-0.84 -5.19,-2.58 -6.78,-0.12 -7.74,-10.71 -8.46,-15.36 -0.3,-2.04 -1.68,-6.75 -0.72,-8.79 0.93,-2.04 2.37,-0.24 1.95,-2.85 -0.27,-1.8 0.45,-3.54 0,-5.37 -0.69,-2.76 -1.47,-4.26 -3.42,-7.11 -1.98,-2.88 -4.41,-5.58 -5.43,-9.03 -0.6,-2.13 0,-3.63 -1.65,-5.46 -1.08,-1.23 -2.19,-2.34 -3,-3.81 -0.66,-1.2 0.24,-1.86 -0.18,-2.79 -0.78,-1.62 -1.68,-2.79 -1.44,-4.71 1.41,1.05 3.99,1.71 4.74,-0.45 0.93,-2.73 -1.89,-4.8 -0.9,-7.53 0.03,0.96 0.63,1.5 1.59,1.44 -0.03,-0.66 -0.18,-1.32 -0.45,-1.95 -0.3,-1.23 0.69,-2.61 0.69,-3.9 -0.03,-2.58 -1.5,-4.29 0.06,-6.75 1.26,-1.98 -1.02,-3.15 -0.06,-5.49 0.72,-1.77 2.1,-4.8 2.34,-6.66 0.6,-4.53 -1.32,-9.33 -1.11,-13.8 0.09,-2.46 2.43,-4.59 2.31,-6.78 -0.09,-1.92 -1.62,-4.17 -2.37,-5.97 -0.6,-1.5 0.33,-3.51 0.9,-4.89 0.6,-1.47 -0.42,-3.87 -0.6,-5.34 -0.12,-1.05 0.51,-1.92 -0.24,-2.88 -0.78,-0.99 -1.53,-2.01 -1.95,-3.24 -0.93,-2.73 -1.32,-5.25 -2.49,-7.98 -2.1,-4.92 -4.44,-10.32 -5.34,-15.63 -0.45,-2.7 0.09,-2.94 1.98,-4.32 1.47,-1.05 0,-3.42 0.99,-4.8 0.93,-1.29 -2.1,-8.46 -3.18,-9.33 -1.32,-1.08 -3.03,-4.26 -2.1,-6.03 1.29,-2.43 1.47,-4.62 2.31,-7.23 0.51,-1.65 -0.69,-4.56 -0.66,-6.39 0.03,-2.94 2.28,-4.74 1.14,-7.77 -1.74,-4.5 0.66,-10.08 0.69,-14.88 0.03,-4.17 -2.58,-7.59 -2.37,-11.55 0.09,-2.28 2.55,-2.67 2.46,-4.83 -0.09,-2.88 -2.22,-5.73 -2.82,-8.61 -0.63,-3 -0.12,-5.94 -0.57,-8.94 -0.21,-1.5 -0.75,-2.52 -0.36,-4.08 0.33,-1.26 0.87,-2.55 0.57,-3.9 -0.33,-1.59 -2.76,-0.63 -3.15,-2.37 -0.42,-1.83 0.18,-3.84 0.36,-5.7 2.91,2.58 2.76,-5.88 2.73,-7.11 -0.15,-7.2 1.29,-15.51 -1.38,-22.29 -2.88,-7.26 -0.96,-15.24 -3.69,-22.62 -1.11,-3.06 -2.37,-6.78 -2.94,-9.99 -0.36,-2.01 0.57,-6.12 -1.77,-7.23"
           style="fill:#78787d;stroke-width:2px" />
        <path
           id="path6472"
           d="m 310.9221,1015 c -0.87,-1.14 -2.25,-3.6 -1.23,-5.04 0.33,1.65 2.85,1.5 2.58,-0.24 -0.12,-0.93 -3.03,-1.92 -3.84,-2.19 1.41,-1.29 3.27,0.27 4.74,0.6 3.18,0.72 1.74,-3 2.7,-4.35 1.02,-1.44 3.93,1.86 5.01,2.13 1.95,0.48 3.48,-1.77 5.25,-0.66 1.95,1.2 2.07,3.9 3.3,5.64 1.65,2.43 2.85,5.16 4.02,7.86 2.7,6.27 6.72,12.06 8.94,18.51 -1.2,-0.69 -2.61,-0.84 -3.84,-1.59 0.69,0.69 1.5,1.17 2.46,1.47 -1.77,1.89 -6.09,0.69 -8.13,-0.03 -1.05,-0.36 -2.22,-2.1 -3.42,-1.77 -1.56,0.45 -1.83,0.87 -3.18,-0.36 0.27,0.51 0.57,1.05 0.87,1.59 -0.9,-0.93 -4.98,0.93 -3.57,-1.71 -0.12,0.66 -1.35,1.17 -2.64,1.44 -1.2,0.24 -2.46,0.27 -3.03,0 0.78,-0.66 1.59,-1.26 2.46,-1.83 -1.5,-0.87 -3.63,0.9 -5.07,1.23 -0.06,-0.96 -0.45,-1.8 -1.2,-2.46 -0.54,3.09 -2.76,-0.51 -3.84,-1.11 1.71,2.31 -1.74,1.47 -2.91,1.26 -0.93,-0.15 -2.04,0.84 -2.88,0.54 -0.87,-0.27 -1.17,-1.92 -1.95,-2.46 1.47,-0.09 2.55,1.08 3.96,1.35 -0.06,-0.96 -0.69,-1.65 -1.71,-1.44 0.99,-0.36 1.86,-0.15 2.61,0.6 -2.82,-2.64 5.46,0.12 6.3,-0.9 0.69,-0.87 -0.06,-2.34 2.1,-1.74 1.5,0.39 0,4.5 2.46,3.9 -0.81,-0.54 -1.32,-1.44 -1.11,-2.46 2.13,-0.03 4.29,2.67 6.45,1.71 -2.07,-1.14 -4.35,-1.74 -6.24,-3.21 -1.65,-1.26 -3.9,-0.27 -5.13,-2.31 3.48,0.54 7.38,1.59 10.29,3.69 -1.08,-0.66 -1.44,-2.16 0.33,-1.89 1.59,0.24 2.76,1.86 3.99,2.76 -0.42,-0.93 -1.08,-1.68 -1.95,-2.22 1.59,-0.57 3.33,1.56 4.44,0.84 1.74,-1.14 4.23,1.56 2.82,3.3 0.45,-0.99 1.38,-1.44 2.34,-0.72 -1.47,-1.53 -0.15,-1.62 1.11,-1.47 -4.56,-3.87 -13.8,-2.55 -17.28,-8.04 -2.46,-3.87 6.99,-3.06 5.85,-6.57 -1.41,-4.38 -10.41,2.82 -13.23,-1.62"
           style="fill:#78787d;stroke-width:1.25px" />
      </g>

      <path
         style="fill:#343530;stroke-width:1.5px"
         d="m 265.1875,75.97006 c 3.78417,-1.892085 12.77157,-9.460416 15.60969,-16.082709 1.89209,-5.20323 -0.94604,-9.933438 -3.78416,-9.460416 4.25718,-4.257189 11.82552,-5.20323 17.97479,-5.676249 12.29855,-0.946044 1.89208,6.62229 2.3651,13.717602 0.47302,6.622293 4.73021,12.771564 -3.78416,16.082709 -8.9874,3.311145 -18.92084,-0.946041 -28.38125,1.892082"
         id="Trinidad">
        <title
           id="title4851">Trinidad and Tobago</title>
      </path>
      <circle
         style="fill:#343530;stroke-width:1.5px"
         id="Curaao"
         cx="176.4"
         cy="38.3"
         r="12">
        <title
           id="title4589">Curaao</title>
      </circle>
      <circle
         style="fill:#343530;stroke-width:1.5px"
         id="Bonaire"
         cx="205.1"
         cy="49.1"
         r="12">
        <title
           id="title4587">Bonaire</title>
      </circle>
      <g
         id="Falklands">
        <title
           id="title5543">Falkland Islands</title>
        <path
           style="fill:#343530;stroke-width:1px"
           d="m 428.57454,999.7 c -2.78946,-2.28228 -5.19858,-5.19855 -7.60767,-8.11482 1.52154,-1.39476 3.04308,-2.78949 2.40909,-4.6914 0.76077,-1.39473 -0.76074,-3.29667 1.39476,-3.16986 1.14114,-1.39473 1.01436,-4.311 3.55023,-3.80385 2.28231,-1.14114 4.05744,-5.57895 6.97371,-3.80382 0.38037,1.26795 1.39473,4.56459 1.7751,1.14114 0.63399,-2.91627 -5.57895,-6.21291 -2.40909,-8.11482 1.14114,1.39473 1.26795,0.88755 1.39473,-0.50718 1.26795,-0.88758 3.29667,0.38037 0.63399,-0.25359 -2.91627,-0.50718 -1.52154,-3.93063 0.50718,-3.67704 2.02869,-1.14114 3.04305,-2.66268 1.7751,-4.81818 2.78949,-0.50718 5.0718,3.93063 7.98807,1.26795 2.91627,-2.28231 7.60764,2.53587 4.05741,4.81818 -1.26795,0 -3.67704,-2.66268 -4.18422,0 2.5359,1.52151 4.05744,3.67704 6.46653,5.07177 0.38037,1.39473 1.52151,3.16986 1.90191,0.63396 0.25359,-2.66268 -5.32536,-4.05741 -1.64832,-6.59331 2.78946,-2.1555 7.86123,-2.78946 10.01673,0.50718 2.40912,2.66268 -1.01433,6.21294 -3.42342,3.04308 -3.55026,-0.63399 -2.15553,4.05741 0.76074,2.91627 2.02872,-0.76077 5.95935,2.1555 2.28231,2.66268 -1.64832,0.88755 3.55023,1.01436 0.63396,1.77513 -2.53587,1.14114 -4.69137,1.64832 -7.86123,1.39473 -2.5359,-0.12681 1.01436,1.14114 -1.26795,1.39473 -1.77513,0.12681 -1.39473,0.50718 -0.12681,1.14114 -0.63396,2.9163 -4.311,2.15553 -6.59331,2.5359 -3.55023,0.25359 -6.97368,-1.01436 -10.14354,-2.66268 -0.50718,0.25359 -3.42345,1.14114 -3.04305,1.01436 3.67704,0.38037 6.72009,4.05741 10.14354,4.81818 0.25359,1.52154 -0.38037,6.21294 -2.1555,2.78949 -2.1555,-1.14117 -5.57895,1.52151 -7.48086,-1.14117 -0.63399,-2.53587 -6.59331,-0.50718 -2.40912,0.63399 1.52154,1.14114 0.25359,4.311 2.28231,4.43778 0.38037,4.94499 -4.43781,0.25359 -6.33972,-0.76074 -3.04305,-1.26795 -2.5359,2.53587 -0.63396,3.67704 0.50718,1.26792 -0.25359,2.66268 0,4.05741 z" />
        <path
           style="fill:#343530;stroke-width:1px"
           d="m 402.83529,993.86746 c 0.88755,-2.28228 -2.91627,-7.10049 -3.42345,-3.93063 1.52154,1.90194 -1.26795,0.3804 -1.64832,-0.63396 -1.39476,-0.50718 -4.94499,-2.91627 -2.91627,-3.80382 1.90191,1.90191 6.08613,0.88755 4.56459,-2.15553 1.52154,-0.76074 2.66268,2.02872 4.56459,1.01436 1.14114,1.77513 5.45217,-2.91627 2.02872,-1.64832 -2.40909,-0.50718 2.40909,-1.26795 0.76077,-3.16986 -0.12681,-3.04305 2.1555,-2.66268 3.04305,-0.50718 0.76077,-1.77513 2.28231,-3.16986 3.29667,-4.43781 -1.39476,-2.53587 -5.0718,0 -5.83254,1.77513 -2.66271,1.77513 -6.46653,-3.67704 -1.77513,-2.91627 2.91627,-0.38037 6.59331,-1.64832 9.25599,-0.63396 -1.90191,-2.15553 -4.18422,-4.05744 -7.10049,-4.6914 -2.5359,-1.14114 2.28231,-3.16986 -0.88755,-3.93063 -1.77513,-0.25359 -5.83254,-1.90191 -2.28231,-3.29664 3.42345,1.52151 5.95935,5.45214 10.14354,5.32536 3.29667,0.12678 0.88758,-5.32536 4.94499,-3.93063 2.78949,-0.3804 4.311,3.55023 6.97368,1.64832 0.76077,-0.63396 2.5359,-0.88755 1.77513,0.63396 2.91627,1.26795 2.66268,-2.91627 3.42345,-3.9306 3.80382,-1.14117 5.07177,5.95932 0.76077,5.83254 -0.63396,1.01433 1.14114,3.04305 -1.26795,3.55023 -3.16986,0.12681 -3.42345,3.42345 -5.19855,5.45217 -1.90194,2.28228 -3.80385,4.56459 -4.94499,7.35408 -1.90191,2.02869 -5.57895,0.50715 -7.60767,2.1555 -2.5359,-0.88758 -2.78949,1.39473 -1.77513,3.16986 0,3.04305 -4.05741,3.16986 -6.08613,2.40909 1.26795,2.28228 -0.63396,3.80382 -2.78946,3.80382 z"
           id="path15186"/>
        <path
           style="fill:#343530;stroke-width:1px"
           d="m 398.14389,981.82201 c -3.16986,-1.01436 -3.42345,-7.86126 0.50718,-6.72012 0,1.14117 -0.76077,3.04308 1.14114,1.64835 3.04308,-0.25359 0.12681,5.32536 -1.64832,4.94496 z"
           id="path15188"/>
      </g>
    </g>
  </g>
</svg>
